<?xml version="1.0" encoding="UTF-8"?>
<svg version="1.1" xmlns="http://www.w3.org/2000/svg" width="512" height="512">
<path d="M0 0 C1.36584532 -0.01358496 1.36584532 -0.01358496 2.75928348 -0.02744436 C4.25416037 -0.01945247 4.25416037 -0.01945247 5.77923679 -0.01129913 C6.84085028 -0.01739024 7.90246376 -0.02348134 8.99624735 -0.02975702 C12.56534003 -0.04645016 16.1340784 -0.04160211 19.70320225 -0.03681183 C22.25722724 -0.04414845 24.8112489 -0.05273348 27.36526585 -0.06247711 C33.58951009 -0.08242962 39.81362323 -0.0880714 46.03789514 -0.08628923 C51.09640728 -0.08498217 56.15489035 -0.08878285 61.21339703 -0.09621429 C62.66987453 -0.09831346 64.12635203 -0.10041106 65.58282954 -0.10250711 C66.30773211 -0.10355064 67.03263469 -0.10459417 67.77950401 -0.10566932 C81.49226991 -0.12457566 95.20498232 -0.12352022 108.91775585 -0.11669999 C121.46573551 -0.1111236 134.01351107 -0.13195325 146.56144302 -0.16506046 C159.44262277 -0.19878343 172.32370469 -0.21396759 185.20492941 -0.20934343 C192.43800496 -0.2070974 199.67089183 -0.21236132 206.90392971 -0.23723602 C213.7042807 -0.26042339 220.50413655 -0.25768354 227.3045187 -0.2373085 C229.8035016 -0.2338861 232.3025128 -0.23904002 234.80145741 -0.25329208 C238.20690647 -0.27137734 241.61089382 -0.25881366 245.01629734 -0.23834991 C246.50782815 -0.25712669 246.50782815 -0.25712669 248.02949089 -0.27628279 C252.50268688 -0.21845399 254.78100471 -0.09159343 258.52301216 2.519701 C260.71914393 5.76408856 261.36206727 7.95164556 261.91816807 11.81911469 C262.01737962 12.4597483 262.11659117 13.10038191 262.21880913 13.76042867 C262.43548262 15.17245625 262.64289132 16.58592865 262.84225655 18.00050378 C263.41555657 22.06305499 264.05727491 26.1151556 264.68757725 30.16918182 C264.89193701 31.50223781 264.89193701 31.50223781 265.10042524 32.86222422 C266.1743068 39.78716632 267.4039855 46.67565333 268.6939249 53.56334686 C283.32907238 131.84557711 288.17572621 207.40635749 287.14084983 291.4133139 C286.99524139 302.93521507 286.91420364 314.45604476 286.88215733 325.97881317 C286.8799926 326.75314697 286.87782786 327.52748076 286.87559754 328.32527922 C286.86699236 331.44157363 286.85845653 334.55786822 286.8500872 337.67416327 C286.81642026 349.62115063 286.74285282 361.56793637 286.66062489 373.51467713 C286.63612207 377.07775528 286.61312413 380.64082791 286.59392834 384.20393896 C286.55026115 392.21410134 286.48254896 400.22324164 286.37437153 408.23286629 C286.34535562 410.6463935 286.32471794 413.06003787 286.31299305 415.47371101 C286.29534539 418.75702994 286.24705119 422.03846816 286.19038486 425.32131195 C286.1919888 426.27729401 286.19359273 427.23327606 286.19524527 428.21822727 C286.17357275 429.09632875 286.15190022 429.97443023 286.12957096 430.87914085 C286.11696979 432.01113106 286.11696979 432.01113106 286.10411406 433.16598976 C285.08650819 436.67557437 283.32506831 438.17506092 280.46125889 440.38311005 C277.74371762 440.87513458 275.65265681 441.05621122 272.94263363 441.00952244 C272.19052205 441.01649005 271.43841048 441.02345765 270.66350764 441.0306364 C268.13450616 441.04792921 265.6070268 441.02949054 263.07804966 441.01129913 C261.25015555 441.01634259 259.42226638 441.02356986 257.5943886 441.03279728 C252.56445793 441.05177612 247.53501155 441.03945392 242.50509286 441.02207434 C237.08294369 441.00873282 231.6608669 441.02412615 226.23872471 441.0358963 C215.61230303 441.05430351 204.98606488 441.04573902 194.35964887 441.02780808 C185.72188117 441.01379464 177.08416336 441.00988658 168.44638538 441.01325035 C166.6037749 441.01396651 166.6037749 441.01396651 164.72393996 441.01469715 C162.22854266 441.01572346 159.73314538 441.01677882 157.2377481 441.01786291 C134.48794226 441.02669595 111.73822863 441.00801864 88.98844594 440.97733268 C68.23016253 440.94949213 47.47199625 440.94449863 26.71370029 440.95952606 C3.39028472 440.97629303 -19.93307009 440.9803157 -43.25648725 440.9628157 C-45.74464916 440.96097131 -48.23281109 440.95913658 -50.72097301 440.95731163 C-51.9452152 440.95639954 -53.16945739 440.95548745 -54.43079782 440.95454772 C-63.05439132 440.94894381 -71.67795516 440.95224837 -80.30154705 440.95885658 C-90.81680816 440.96659428 -101.33194347 440.95982199 -111.84717925 440.93468154 C-117.21154537 440.92219432 -122.57571573 440.91603054 -127.94008923 440.92722321 C-132.85410072 440.93728237 -137.7677223 440.92876993 -142.68168645 440.90564203 C-144.45627699 440.90049333 -146.23090261 440.9020254 -148.00547774 440.91103668 C-162.69626284 440.97941037 -174.4411484 438.63046044 -185.62858486 428.4885788 C-195.23136922 418.55402838 -199.40291313 406.01001081 -202.45955181 392.87623978 C-202.99941261 390.55938317 -203.56142363 388.24882417 -204.12879848 385.93856049 C-205.52973982 380.21631489 -206.89584529 374.48590088 -208.25932217 368.75463104 C-209.42171669 363.87293099 -210.59911105 358.99535962 -211.79764843 354.12240219 C-212.34944035 351.85234623 -212.87872548 349.57779544 -213.40742397 347.30226898 C-213.74709246 345.91210713 -214.08784412 344.52220934 -214.42985439 343.13262177 C-214.71740597 341.92242371 -215.00495754 340.71222565 -215.3012228 339.46535492 C-216.75521415 335.84394799 -218.37648104 334.57993285 -221.53874111 332.38311005 C-226.52332699 325.4936167 -227.32166652 318.67945809 -227.16374111 310.38311005 C-227.18307705 309.3673288 -227.20241299 308.35154755 -227.22233486 307.30498505 C-227.17597479 300.07281352 -225.69638811 294.37456395 -221.53874111 288.38311005 C-215.2482031 282.40897335 -209.3911016 280.09025404 -200.71916103 280.06426239 C-199.94789883 280.05421677 -199.17663662 280.04417114 -198.38200283 280.03382111 C-195.84441243 280.00304398 -193.30692728 279.98596933 -190.76920986 279.96904755 C-189.00514734 279.95033148 -187.24109373 279.93075774 -185.47704983 279.91036224 C-180.84275985 279.85908132 -176.20844086 279.81943399 -171.57401943 279.78221893 C-166.8414841 279.74215396 -162.10906904 279.69107299 -157.37663174 279.64092255 C-148.0974194 279.54421109 -138.81813908 279.459791 -129.53874111 279.38311005 C-130.01482311 278.70804916 -130.49090511 278.03298828 -130.98141384 277.33747101 C-131.60836651 276.44575699 -132.23531918 275.55404297 -132.88127041 274.63530731 C-133.50172741 273.75399643 -134.12218441 272.87268555 -134.76144314 271.96466827 C-147.80294658 253.02164295 -156.28801632 230.67002926 -161.53874111 208.38311005 C-161.78237392 207.3982663 -162.02600674 206.41342255 -162.27702236 205.39873505 C-166.17340798 187.48066242 -163.16097035 168.46796285 -154.53874111 152.38311005 C-151.78650667 148.15198824 -148.79409535 144.23767994 -145.53874111 140.38311005 C-144.9857333 139.71666473 -144.43272549 139.05021942 -143.86295986 138.3635788 C-134.11160334 127.6443457 -118.78892029 121.06265729 -104.53874111 119.38311005 C-101.03747632 119.24756072 -97.5422359 119.24345107 -94.03874111 119.25811005 C-93.1144833 119.25424286 -92.19022549 119.25037567 -91.23795986 119.2463913 C-90.33690517 119.24768036 -89.43585049 119.24896942 -88.50749111 119.25029755 C-87.29222744 119.25198944 -87.29222744 119.25198944 -86.05241299 119.25371552 C-83.19344635 119.40088454 -80.36254228 119.91247652 -77.53874111 120.38311005 C-77.86874111 114.44311005 -78.19874111 108.50311005 -78.53874111 102.38311005 C-80.12686611 101.82623505 -81.71499111 101.26936005 -83.35124111 100.69561005 C-86.55566461 99.39933689 -88.30369623 98.63889418 -90.66374111 96.07061005 C-91.81835523 92.52429527 -92.05986229 90.09609845 -91.53874111 86.38311005 C-89.51122235 82.91069286 -87.43034896 80.68031266 -83.53874111 79.38311005 C-77.1824431 78.73450821 -72.02121055 80.25027037 -66.53874111 83.38311005 C-60.75527274 88.26933005 -56.99167892 94.36089804 -56.30314541 101.99541473 C-56.24495226 104.79760042 -56.27588562 107.58143169 -56.35124111 110.38311005 C-56.36477627 111.34861786 -56.37831142 112.31412567 -56.39225674 113.3088913 C-56.42728653 115.6675643 -56.47640027 118.02502776 -56.53874111 120.38311005 C-55.77303799 120.21939911 -55.00733486 120.05568817 -54.21842861 119.8870163 C-49.34858393 119.22012674 -44.57183479 119.27738158 -39.66374111 119.32061005 C-38.68920986 119.32512177 -37.71467861 119.32963348 -36.71061611 119.33428192 C-34.31992678 119.34600099 -31.92936672 119.36240785 -29.53874111 119.38311005 C-29.38002529 118.68685516 -29.22130947 117.99060028 -29.05778408 117.27324677 C-26.55538375 106.45052291 -22.97202414 95.93795472 -19.53874111 85.38311005 C-21.20163174 85.40244598 -21.20163174 85.40244598 -22.89811611 85.42217255 C-28.01342466 85.36728726 -28.01342466 85.36728726 -30.53874111 83.38311005 C-33.13407294 79.53485941 -33.79007105 77.0407754 -33.02244473 72.48946381 C-32.0123945 68.09106148 -30.46529448 63.86544135 -28.96842861 59.6135788 C-28.60911251 58.57856735 -28.24979641 57.54355591 -27.87959194 56.47718048 C-27.11763571 54.28664635 -26.35258195 52.09718753 -25.58463955 49.90874481 C-24.43180342 46.62210418 -23.28911892 43.33207798 -22.14811611 40.04131317 C-19.98021255 33.80913515 -17.77398311 27.59143969 -15.53874111 21.38311005 C-15.2063644 20.45693878 -14.87398769 19.53076752 -14.53153896 18.57653046 C-13.61473082 16.0436645 -12.67889949 13.5189118 -11.73405361 10.9963913 C-11.4679327 10.25994888 -11.20181179 9.52350647 -10.92762661 8.76474762 C-8.72194656 2.99824266 -6.37063148 0.01274146 0 0 Z " fill="#010000" transform="translate(226.53874111175537,35.61688995361328)"/>
<path d="M0 0 C2.32363941 2.32363941 2.32958388 3.00759762 2.67578125 6.171875 C2.77850342 7.04610107 2.88122559 7.92032715 2.98706055 8.82104492 C3.09445557 9.7876001 3.20185059 10.75415527 3.3125 11.75 C4.23443265 19.37127021 5.26733131 26.95220436 6.56217194 34.51960373 C7.31092402 38.9114504 8.04038321 43.30640916 8.76923704 47.70159745 C9.47698731 51.94586176 10.20723212 56.18510892 10.96495056 60.42075348 C16.58028611 91.91931802 19.15189559 122.30017669 18.8111515 154.273736 C18.75965834 159.96420045 18.75632922 165.65473644 18.74694824 171.34539795 C18.72250356 182.02545083 18.65745177 192.70481471 18.57615232 203.38456988 C18.48538807 215.58375205 18.44241622 227.78297477 18.40258884 239.98241282 C18.31992558 264.98865092 18.18007126 289.99428617 18 315 C15.43908704 312.43908704 14.63571301 309.96680133 13.28515625 306.6015625 C12.75847532 305.30468272 12.23178223 304.00780787 11.70507812 302.7109375 C10.88289899 300.66861607 10.06270474 298.62551066 9.2434082 296.58203125 C8.44967813 294.60737406 7.64891459 292.63567441 6.84765625 290.6640625 C6.1362146 288.89216553 6.1362146 288.89216553 5.41040039 287.08447266 C3.21642285 282.10585354 3.21642285 282.10585354 -1.0859375 279.21484375 C-1.84132813 279.12332031 -2.59671875 279.03179687 -3.375 278.9375 C-4.12523437 278.82277344 -4.87546875 278.70804687 -5.6484375 278.58984375 C-9.27250933 279.2219493 -10.61052664 281.26774164 -13 284 C-14.25716411 286.43676852 -15.32835016 288.7374292 -16.33203125 291.26953125 C-16.6135051 291.95053391 -16.89497894 292.63153656 -17.1849823 293.33317566 C-18.07263411 295.48833133 -18.94275426 297.65006483 -19.8125 299.8125 C-20.41486667 301.28367409 -21.0183714 302.75438274 -21.62304688 304.22460938 C-23.09524396 307.81115923 -24.55177149 311.4037087 -26 315 C-26.33 315 -26.66 315 -27 315 C-27.00364563 314.28447464 -27.00729126 313.56894928 -27.01104736 312.83174133 C-27.04896289 306.0783225 -27.10585538 299.32535881 -27.18390274 292.57227802 C-27.22336028 289.10065676 -27.2555567 285.62928846 -27.27099609 282.1574707 C-27.28908061 278.16316222 -27.33903842 274.16979857 -27.390625 270.17578125 C-27.39246796 268.31147209 -27.39246796 268.31147209 -27.39434814 266.40950012 C-27.41406677 265.24867416 -27.4337854 264.08784821 -27.45410156 262.8918457 C-27.46298401 261.87258499 -27.47186646 260.85332428 -27.48101807 259.80317688 C-28.13505971 256.27050205 -29.54573299 254.57561198 -32 252 C-34.85324437 250.57337781 -36.83454549 250.68966132 -40 251 C-42.69990662 252.79993774 -44.5418865 254.083773 -46 257 C-46.10307183 258.35539661 -46.14641341 259.71560084 -46.15821838 261.07485962 C-46.1680072 261.92743851 -46.17779602 262.7800174 -46.18788147 263.65843201 C-46.19363693 264.59566605 -46.1993924 265.53290009 -46.20532227 266.49853516 C-46.21522186 267.48393784 -46.22512146 268.46934052 -46.23532104 269.48460388 C-46.26699403 272.75273203 -46.29171639 276.02087474 -46.31640625 279.2890625 C-46.33697077 281.55065293 -46.3579671 283.81223946 -46.37937927 286.07382202 C-46.43465179 292.03488014 -46.4840382 297.99597325 -46.53222656 303.95709229 C-46.59122134 311.10485676 -46.65747775 318.25255711 -46.72252655 325.40026855 C-46.82060121 336.26680664 -46.90941275 347.13338529 -47 358 C-67.46 358 -87.92 358 -109 358 C-107.6435996 353.93079881 -106.23361497 350.05609129 -104.62695312 346.09790039 C-102.02456585 339.36452699 -100.17020838 332.52917269 -98.47584534 325.5248394 C-97.95423592 323.37373811 -97.42012999 321.22607063 -96.88269043 319.07887268 C-95.35914263 312.98557998 -93.85244892 306.88827153 -92.36572266 300.78588867 C-91.44868538 297.02560921 -90.51348009 293.27023796 -89.56678772 289.51732063 C-89.21216457 288.09612897 -88.86451506 286.67317748 -88.52415466 285.24850273 C-88.04955166 283.26361586 -87.54971206 281.28481484 -87.04882812 279.30639648 C-86.77300903 278.18200668 -86.49718994 277.05761688 -86.2130127 275.89915466 C-84.75906757 272.4241607 -83.0559581 271.12564676 -80 269 C-73.49374702 261.57805215 -74.15910381 251.47050125 -74.5234375 242.1875 C-75.02831535 235.06339446 -76.75985787 230.19947089 -81.8671875 225.15625 C-87.8466108 220.22380743 -94.1376378 218.7582929 -101.84007263 218.7215271 C-102.49125488 218.7157347 -103.14243713 218.7099423 -103.81335217 218.70397437 C-105.97514766 218.68709463 -108.13672814 218.68410839 -110.29858398 218.68115234 C-111.8562522 218.67184583 -113.41391546 218.66167609 -114.97157288 218.65071106 C-119.1858895 218.62347846 -123.40017283 218.60828169 -127.61455417 218.59528303 C-132.02416716 218.57962293 -136.43371244 218.55284191 -140.84327698 218.5272522 C-149.18702023 218.48051533 -157.53077628 218.4437466 -165.8745833 218.41057932 C-175.37642054 218.37232192 -184.87818969 218.32292125 -194.37996948 218.27259517 C-213.91992978 218.16935106 -233.45993167 218.08006624 -253 218 C-251.33346988 214.59065174 -249.41510765 211.45240006 -247.375 208.25 C-230.29611335 180.88844574 -212.96469955 143.50394607 -220.43847656 110.70019531 C-225.41315572 91.1673784 -235.768622 76.49568539 -253 66 C-254.32144979 65.31007777 -255.64947629 64.63111641 -257 64 C-256.44756751 58.577755 -255.46289672 53.62209475 -253.75 48.4375 C-253.53182617 47.75929199 -253.31365234 47.08108398 -253.08886719 46.38232422 C-252.40063723 44.25215895 -251.7013595 42.12587491 -251 40 C-250.76667969 39.28634277 -250.53335938 38.57268555 -250.29296875 37.83740234 C-246.27442244 25.54884488 -246.27442244 25.54884488 -245 23 C-227.51 23 -210.02 23 -192 23 C-192 28.38232618 -192.13315712 32.91491259 -192.875 38.140625 C-193.05741889 39.47263883 -193.23970637 40.80467067 -193.421875 42.13671875 C-193.7088582 44.18806292 -193.99843018 46.23899812 -194.29101562 48.28955078 C-196.50529302 61.13840919 -196.50529302 61.13840919 -196 74 C-193.4279431 77.29430843 -192.51034111 77.92280555 -188.28125 78.5625 C-183.18126587 78.29756576 -179.61572367 75.82003289 -175.5 73 C-174.77296875 72.52304688 -174.0459375 72.04609375 -173.296875 71.5546875 C-171.52047696 70.38600458 -169.75866152 69.19520686 -168 68 C-163.84285008 70.70862459 -160.04905503 73.567493 -156.3203125 76.828125 C-152.86634175 78.57255467 -149.73073163 78.71329069 -146 78 C-143.08490764 76.65179582 -140.58159619 74.89898726 -138 73 C-137.32066406 72.52304688 -136.64132812 72.04609375 -135.94140625 71.5546875 C-134.28244568 70.38640541 -132.63948555 69.19545821 -131 68 C-127.47668308 69.56408929 -124.75518235 71.72944036 -121.75 74.125 C-117.09738476 77.58945974 -117.09738476 77.58945974 -111.5625 78.75 C-107.66376604 77.9292139 -106.33221514 77.17181258 -104 74 C-102.3507036 70.70140721 -102.30375988 66.99953034 -101.87890625 63.37109375 C-101.66342953 61.59570093 -101.44793412 59.82031038 -101.23242188 58.04492188 C-100.89772423 55.24974426 -100.56450858 52.45439551 -100.23217773 49.65893555 C-99.90981743 46.95835794 -99.58203325 44.25847586 -99.25390625 41.55859375 C-99.15799698 40.73636826 -99.06208771 39.91414276 -98.96327209 39.06700134 C-98.86654709 38.27330643 -98.76982208 37.47961151 -98.67016602 36.66186523 C-98.58879898 35.97728745 -98.50743195 35.29270966 -98.42359924 34.58738708 C-97.78605243 30.69318656 -96.85601714 26.85207714 -96 23 C-72.9 23 -49.8 23 -26 23 C-28.3124047 33.40582115 -30.62203327 43.79144786 -33.12890625 54.1484375 C-33.40468002 55.29309479 -33.6804538 56.43775208 -33.96458435 57.61709595 C-34.53936511 60.00158355 -35.11489209 62.3858914 -35.69116211 64.77001953 C-36.56594462 68.38925141 -37.4384431 72.00902805 -38.31054688 75.62890625 C-38.8748686 77.96878169 -39.43931728 80.30862653 -40.00390625 82.6484375 C-40.38839684 84.24261002 -40.38839684 84.24261002 -40.78065491 85.86898804 C-41.15135353 87.40216171 -41.15135353 87.40216171 -41.52954102 88.96630859 C-41.76943756 89.97267868 -42.00933411 90.97904877 -42.25650024 92.01591492 C-42.74641025 93.9822009 -43.27257447 95.93985866 -43.83700562 97.88606262 C-46.16917964 106.14611656 -46.47381918 114.1337368 -46.46875 122.65234375 C-46.47587 124.12537416 -46.48357161 125.59840187 -46.49182129 127.07142639 C-46.50515787 130.13306442 -46.50688048 133.19444485 -46.50097656 136.25610352 C-46.49503916 140.17253656 -46.52588587 144.08774753 -46.56609344 148.00394344 C-46.59195048 151.03492352 -46.59485074 154.06560643 -46.59120178 157.09668159 C-46.59288972 158.54115475 -46.602501 159.98564211 -46.62034607 161.43000603 C-46.6425285 163.44401995 -46.62962598 165.45832744 -46.61523438 167.47241211 C-46.61728882 168.6153624 -46.61934326 169.75831268 -46.62145996 170.93589783 C-45.80252957 174.97362598 -44.19403247 176.47808484 -41 179 C-36.80468804 179.51521375 -33.51865971 179.47609387 -30 177 C-27.74475584 173.61713376 -27.8000737 172.771076 -27.99853516 168.85449219 C-28.04238846 167.78535583 -28.08624176 166.71621948 -28.13142395 165.61468506 C-28.18344467 164.43730774 -28.23546539 163.25993042 -28.2890625 162.046875 C-29.4953116 119.74562089 -22.22905288 82.49556991 -10.61828613 41.92218018 C-7.140604 29.74907993 -4.16679877 17.51930962 -1.50065613 5.14013672 C-1 3 -1 3 0 0 Z " fill="#FED98E" transform="translate(474,98)"/>
<path d="M0 0 C30.03 0 60.06 0 91 0 C102.11111111 21.11111111 102.11111111 21.11111111 106.8203125 30.8984375 C109.94849448 35.34964985 113.86880948 38.37031876 119.3041687 39.46336746 C121.86864194 39.64664251 124.39008097 39.6760862 126.9609375 39.64697266 C127.92461243 39.65573425 128.88828735 39.66449585 129.88116455 39.67352295 C133.04624314 39.69541386 136.20990881 39.68100032 139.375 39.6640625 C141.58642849 39.66743358 143.79785517 39.67228863 146.00927734 39.67855835 C150.63592227 39.68591575 155.26208335 39.67526022 159.88867188 39.65185547 C165.80694088 39.62336899 171.72407602 39.63977896 177.64230347 39.66971779 C182.20638509 39.68782105 186.77019971 39.68201872 191.33428955 39.66907883 C193.51589087 39.66575322 195.69751674 39.66980202 197.87908936 39.68147659 C200.93306302 39.69423477 203.98522325 39.67473773 207.0390625 39.64697266 C208.37967743 39.66215439 208.37967743 39.66215439 209.74737549 39.67764282 C215.97069253 39.57329228 220.18330942 37.99344675 225 34 C226.98036681 31.58077318 226.98036681 31.58077318 228.1953125 28.8671875 C228.92814453 27.40925781 228.92814453 27.40925781 229.67578125 25.921875 C230.15402344 24.91640625 230.63226563 23.9109375 231.125 22.875 C232.10573591 20.8927168 233.08750483 18.91094434 234.0703125 16.9296875 C234.49070801 16.05554199 234.91110352 15.18139648 235.34423828 14.28076172 C237.77776933 9.45891119 240.41365249 4.7416371 243 0 C273.03 0 303.06 0 334 0 C318.63284632 69.15219155 318.63284632 69.15219155 307.87698138 76.43811274 C301.35624422 79.87259844 296.1021817 80.71330192 288.79086304 80.62145996 C287.16330139 80.63104319 287.16330139 80.63104319 285.50285971 80.64082003 C281.89003306 80.65600341 278.27831472 80.63565156 274.66552734 80.61523438 C272.06622455 80.61873749 269.4669239 80.62439822 266.86763 80.63204956 C260.55488533 80.64653202 254.2424637 80.6343876 247.92974971 80.61293632 C240.5719252 80.58885642 233.2141736 80.59064492 225.85631843 80.59324223 C212.72576001 80.59692752 199.59535326 80.57614777 186.46484375 80.54199219 C173.73466155 80.50889044 161.00463844 80.49473676 148.27441406 80.50097656 C134.39616318 80.50774567 120.5179788 80.50526661 106.63973773 80.48561716 C105.90541915 80.48457768 105.17110058 80.48353819 104.41452993 80.4824672 C102.93987007 80.48037638 101.46521025 80.47826541 99.99055045 80.47613403 C94.8660638 80.46924912 89.74159769 80.46856732 84.61710739 80.47001648 C77.71742742 80.47160924 70.81794081 80.45667191 63.91831017 80.43078995 C61.38673129 80.4236299 58.85513222 80.42154373 56.32354546 80.42490768 C52.86721435 80.42862432 49.41143695 80.41386761 45.95516968 80.39440918 C44.95419231 80.39973711 43.95321494 80.40506503 42.92190492 80.41055441 C34.08790304 80.32478991 27.44443268 78.44443268 21 72 C12.57406752 62.06042695 10.55009678 46.53069986 7.4375 34.25 C7.15664551 33.1455957 6.87579102 32.04119141 6.58642578 30.90332031 C4.04109656 20.64213838 2.08061813 10.40309064 0 0 Z " fill="#E0EDFE" transform="translate(33,376)"/>
<path d="M0 0 C6.96664009 1.70736037 12.49069491 0.8704971 19.2578125 -1.125 C34.16582515 -5.15786664 48.93336269 -3.51093055 62.5703125 3.875 C75.56487508 13.25481265 81.86384624 25.28775914 84.5703125 40.875 C87.72282767 68.66216944 70.39354126 103.34747998 54.03515625 124.8984375 C44.57095011 136.32747883 44.57095011 136.32747883 38.05859375 137.21875 C30.96058177 137.56797568 26.09103799 136.57937275 19.8828125 133.375 C13.9861554 130.37364933 9.20819254 128.1633454 2.5703125 129.875 C-0.69030754 131.24028425 -3.76825501 132.75793879 -6.86328125 134.46484375 C-12.49185261 137.55755952 -18.14716626 137.79936098 -24.4296875 136.875 C-43.07100786 127.87373939 -54.50839998 98.41103746 -60.9675293 79.9375 C-62.19562266 76.27141101 -63.3256997 72.58002963 -64.4296875 68.875 C-64.77128906 67.77929688 -65.11289063 66.68359375 -65.46484375 65.5546875 C-69.55734529 50.66940284 -69.09679072 34.72471315 -61.921875 20.98828125 C-55.18327502 9.50131897 -45.59904628 2.18521381 -32.93359375 -1.9375 C-21.613895 -4.61407901 -10.92003115 -3.45600986 0 0 Z " fill="#FD9DB0" transform="translate(151.4296875,178.125)"/>
<path d="M0 0 C2.32363941 2.32363941 2.32958388 3.00759762 2.67578125 6.171875 C2.77850342 7.04610107 2.88122559 7.92032715 2.98706055 8.82104492 C3.09445557 9.7876001 3.20185059 10.75415527 3.3125 11.75 C4.23443265 19.37127021 5.26733131 26.95220436 6.56217194 34.51960373 C7.31092402 38.9114504 8.04038321 43.30640916 8.76923704 47.70159745 C9.47698731 51.94586176 10.20723212 56.18510892 10.96495056 60.42075348 C16.58028611 91.91931802 19.15189559 122.30017669 18.8111515 154.273736 C18.75965834 159.96420045 18.75632922 165.65473644 18.74694824 171.34539795 C18.72250356 182.02545083 18.65745177 192.70481471 18.57615232 203.38456988 C18.48538807 215.58375205 18.44241622 227.78297477 18.40258884 239.98241282 C18.31992558 264.98865092 18.18007126 289.99428617 18 315 C15.43908704 312.43908704 14.63571301 309.96680133 13.28515625 306.6015625 C12.75847532 305.30468272 12.23178223 304.00780787 11.70507812 302.7109375 C10.88289899 300.66861607 10.06270474 298.62551066 9.2434082 296.58203125 C8.44967813 294.60737406 7.64891459 292.63567441 6.84765625 290.6640625 C6.1362146 288.89216553 6.1362146 288.89216553 5.41040039 287.08447266 C3.21642285 282.10585354 3.21642285 282.10585354 -1.0859375 279.21484375 C-1.84132813 279.12332031 -2.59671875 279.03179687 -3.375 278.9375 C-4.12523437 278.82277344 -4.87546875 278.70804687 -5.6484375 278.58984375 C-9.27250933 279.2219493 -10.61052664 281.26774164 -13 284 C-14.25716411 286.43676852 -15.32835016 288.7374292 -16.33203125 291.26953125 C-16.6135051 291.95053391 -16.89497894 292.63153656 -17.1849823 293.33317566 C-18.07263411 295.48833133 -18.94275426 297.65006483 -19.8125 299.8125 C-20.41486667 301.28367409 -21.0183714 302.75438274 -21.62304688 304.22460938 C-23.09524396 307.81115923 -24.55177149 311.4037087 -26 315 C-26.33 315 -26.66 315 -27 315 C-27.00364563 314.28447464 -27.00729126 313.56894928 -27.01104736 312.83174133 C-27.04896289 306.0783225 -27.10585538 299.32535881 -27.18390274 292.57227802 C-27.22336028 289.10065676 -27.2555567 285.62928846 -27.27099609 282.1574707 C-27.28908061 278.16316222 -27.33903842 274.16979857 -27.390625 270.17578125 C-27.39185364 268.93290848 -27.39308228 267.69003571 -27.39434814 266.40950012 C-27.41406677 265.24867416 -27.4337854 264.08784821 -27.45410156 262.8918457 C-27.46298401 261.87258499 -27.47186646 260.85332428 -27.48101807 259.80317688 C-28.14911854 256.19456607 -29.40610439 254.56927969 -32 252 C-33.65 251.34 -35.3 250.68 -37 250 C-37 241.75 -37 233.5 -37 225 C-38.65 224.67 -40.3 224.34 -42 224 C-45.16727713 221.27262248 -46.8048602 219.43102522 -47.375 215.25 C-46.86428948 210.82384215 -45.18298475 209.04151876 -42 206 C-40.35 205.67 -38.7 205.34 -37 205 C-37 196.75 -37 188.5 -37 180 C-34.69 179.01 -32.38 178.02 -30 177 C-27.74475584 173.61713376 -27.8000737 172.771076 -27.99853516 168.85449219 C-28.04238846 167.78535583 -28.08624176 166.71621948 -28.13142395 165.61468506 C-28.18344467 164.43730774 -28.23546539 163.25993042 -28.2890625 162.046875 C-29.4953116 119.74562089 -22.22905288 82.49556991 -10.61828613 41.92218018 C-7.140604 29.74907993 -4.16679877 17.51930962 -1.50065613 5.14013672 C-1 3 -1 3 0 0 Z " fill="#DBB8A2" transform="translate(474,98)"/>
<path d="M0 0 C1.23724508 -0.00782324 2.47449017 -0.01564648 3.74922752 -0.02370679 C5.1296438 -0.01722003 6.51005876 -0.01045003 7.89047241 -0.00342751 C9.35110639 -0.00688208 10.81173777 -0.01164529 12.27236366 -0.01760924 C16.29602138 -0.03017654 20.31946668 -0.02392298 24.34312534 -0.01465058 C28.67856374 -0.00788378 33.01396471 -0.01832952 37.34939575 -0.02659035 C45.84642613 -0.03995527 54.34337717 -0.03703769 62.84041071 -0.02835242 C69.74392506 -0.02158711 76.64741712 -0.02065415 83.55093384 -0.02392387 C85.0227417 -0.02461342 85.0227417 -0.02461342 86.52428305 -0.0253169 C88.51735926 -0.02627604 90.51043547 -0.02724868 92.50351167 -0.02823468 C111.20833032 -0.03679665 129.91310492 -0.02694179 148.61791635 -0.01083358 C164.67998184 0.00257034 180.74198231 0.00024247 196.80404663 -0.01358986 C215.44029754 -0.02963143 234.0765098 -0.0359726 252.71276665 -0.02675307 C254.69865798 -0.02579738 256.68454933 -0.02485427 258.67044067 -0.02392387 C259.64762861 -0.02346105 260.62481654 -0.02299822 261.63161623 -0.02252137 C268.52969896 -0.0199272 275.42775724 -0.02431164 282.32583618 -0.03136253 C290.72819832 -0.03976194 299.13047635 -0.03753034 307.53282881 -0.0215203 C311.8227829 -0.0136165 316.11259657 -0.01058169 320.40254974 -0.02046776 C324.32558226 -0.02937178 328.24834348 -0.02455331 332.17135119 -0.0085351 C333.59458673 -0.00516898 335.01784493 -0.00692216 336.44106603 -0.01416247 C338.36782003 -0.02321655 340.29463775 -0.01218298 342.22137451 0 C343.29397711 0.00048706 344.3665797 0.00097411 345.47168541 0.00147593 C348.11068726 0.37752342 348.11068726 0.37752342 349.95386696 1.69799364 C351.85068504 4.45188935 351.50618246 7.09829084 351.48568726 10.37752342 C351.49342163 11.61502342 351.50115601 12.85252342 351.50912476 14.12752342 C351.11068726 17.37752342 351.11068726 17.37752342 349.95386696 19.05705321 C347.33356717 20.93425911 345.42953531 20.75359005 342.22137451 20.75504684 C340.98412943 20.76287009 339.74688435 20.77069333 338.47214699 20.77875364 C337.09173072 20.77226687 335.71131575 20.76549688 334.3309021 20.75847435 C332.87026812 20.76192892 331.40963674 20.76669214 329.94901085 20.77265608 C325.92535313 20.78522338 321.90190783 20.77896983 317.87824917 20.76969743 C313.54281077 20.76293062 309.2074098 20.77337636 304.87197876 20.78163719 C296.37494838 20.79500211 287.87799734 20.79208453 279.3809638 20.78339927 C272.47744945 20.77663396 265.57395739 20.775701 258.67044067 20.77897072 C257.68923543 20.77943042 256.70803019 20.77989012 255.69709146 20.78036375 C253.70401525 20.78132289 251.71093904 20.78229553 249.71786284 20.78328152 C231.01304419 20.7918435 212.30826959 20.78198863 193.60345817 20.76588042 C177.54139267 20.75247651 161.47939221 20.75480438 145.41732788 20.7686367 C126.78107697 20.78467827 108.14486471 20.79101945 89.50860786 20.78179991 C87.52271653 20.78084423 85.53682519 20.77990112 83.55093384 20.77897072 C82.5737459 20.77850789 81.59655797 20.77804507 80.58975828 20.77756821 C73.69167555 20.77497405 66.79361727 20.77935849 59.89553833 20.78640938 C51.49317619 20.79480879 43.09089816 20.79257718 34.6885457 20.77656715 C30.39859161 20.76866335 26.10877794 20.76562853 21.81882477 20.7755146 C17.89579225 20.78441862 13.97303103 20.77960015 10.05002332 20.76358195 C8.62678778 20.76021582 7.20352958 20.76196901 5.78030849 20.76920931 C3.85355448 20.77826339 1.92673676 20.76722982 0 20.75504684 C-1.0726026 20.75455979 -2.14520519 20.75407273 -3.2503109 20.75357091 C-5.88931274 20.37752342 -5.88931274 20.37752342 -7.73249245 19.05705321 C-9.62931052 16.30315749 -9.28480795 13.65675601 -9.26431274 10.37752342 C-9.27204712 9.14002342 -9.27978149 7.90252342 -9.28775024 6.62752342 C-8.88931274 3.37752342 -8.88931274 3.37752342 -7.73249245 1.69799364 C-5.11219266 -0.17921227 -3.2081608 0.00145679 0 0 Z " fill="#9FC7FE" transform="translate(28.889312744140625,335.6224765777588)"/>
<path d="M0 0 C25.74 0 51.48 0 78 0 C73.35757212 23.21213942 73.35757212 23.21213942 70.8125 33.1875 C70.55275391 34.23357422 70.29300781 35.27964844 70.02539062 36.35742188 C68.1317917 43.8682083 68.1317917 43.8682083 67 45 C64.76070114 45.09436529 62.5183825 45.11742327 60.27709961 45.11352539 C59.5746965 45.11367142 58.8722934 45.11381744 58.14860535 45.1139679 C55.81648722 45.11326872 53.484448 45.10547617 51.15234375 45.09765625 C49.53951562 45.09579208 47.92668693 45.09436818 46.31385803 45.09336853 C42.06084643 45.08954323 37.80786876 45.07971285 33.55487061 45.06866455 C29.2182257 45.05845069 24.88157533 45.05387096 20.54492188 45.04882812 C12.02993231 45.03809059 3.51497037 45.02101403 -5 45 C-5 29.90769144 -2.13437475 14.94062322 0 0 Z " fill="#FDD88D" transform="translate(386,56)"/>
<path d="M0 0 C0.99261337 0.00222061 1.98522675 0.00444122 3.00791931 0.00672913 C4.12900589 0.00680466 5.25009247 0.00688019 6.40515137 0.00695801 C8.2348069 0.01469994 8.2348069 0.01469994 10.10142517 0.02259827 C11.96377052 0.02472069 11.96377052 0.02472069 13.86373901 0.02688599 C17.16982383 0.03154861 20.47584039 0.04053955 23.78190613 0.05158997 C27.15338042 0.06180625 30.52486175 0.06638407 33.89634705 0.07142639 C40.51550667 0.08248056 47.13463385 0.09923715 53.75376892 0.12025452 C53.35314023 15.44430204 51.02520293 29.78807495 48.75376892 45.12025452 C26.64376892 45.12025452 4.53376892 45.12025452 -18.24623108 45.12025452 C-16.3887488 38.92864691 -14.51632959 32.82368861 -12.36341858 26.74134827 C-12.10368256 26.00320389 -11.84394653 25.26505951 -11.57633972 24.50454712 C-11.03469283 22.96742703 -10.49187092 21.43072051 -9.94789124 19.89442444 C-9.11244106 17.53290829 -8.28267095 15.1694453 -7.45326233 12.80580139 C-6.92365167 11.30503129 -6.39371595 9.80437585 -5.86341858 8.30384827 C-5.61550568 7.5966716 -5.36759277 6.88949493 -5.11216736 6.16088867 C-2.97865326 0.15946557 -2.97865326 0.15946557 0 0 Z " fill="#FCD88D" transform="translate(236.24623107910156,55.87974548339844)"/>
<path d="M0 0 C18.15 0 36.3 0 55 0 C54.18951428 8.10485718 53.27796031 16.18078971 52.27050781 24.26147461 C51.99755733 26.45714942 51.72921896 28.65335979 51.4609375 30.84960938 C51.28673974 32.25263913 51.11227059 33.65563523 50.9375 35.05859375 C50.70353516 36.95049438 50.70353516 36.95049438 50.46484375 38.88061523 C50 42 50 42 49 45 C30.85 45 12.7 45 -6 45 C-5.38125 39.245625 -4.7625 33.49125 -4.125 27.5625 C-3.83906982 24.86622437 -3.83906982 24.86622437 -3.54736328 22.11547852 C-3.38874441 20.66157761 -3.2297514 19.20771746 -3.0703125 17.75390625 C-2.99417725 17.02264526 -2.91804199 16.29138428 -2.83959961 15.53796387 C-2.24569894 10.18488006 -1.18448665 5.33018991 0 0 Z " fill="#FDF1D9" transform="translate(311,56)"/>
<path d="M0 0 C35.64 0 71.28 0 108 0 C104.66666667 6.66666667 101.33333333 13.33333333 98 20 C68.96 20 39.92 20 10 20 C0 1 0 1 0 0 Z " fill="#FDFDFD" transform="translate(146,376)"/>
<path d="M0 0 C18.15 0 36.3 0 55 0 C55 6.8277712 54.78941168 12.57339471 53.5 19.125 C53.35691406 19.89070313 53.21382813 20.65640625 53.06640625 21.4453125 C52.71895311 23.29839589 52.36066545 25.14944274 52 27 C51.0409375 26.2575 51.0409375 26.2575 50.0625 25.5 C45.90484617 23.46359813 42.55031651 23.18598309 38 24 C35.03423116 25.32204876 32.53455956 27.06462832 29.9375 29 C29.26267578 29.47695312 28.58785156 29.95390625 27.89257812 30.4453125 C26.24827712 31.61148343 24.62212528 32.80317503 23 34 C22.49210937 33.61328125 21.98421875 33.2265625 21.4609375 32.828125 C20.02920342 31.74494042 18.59134376 30.66981942 17.1484375 29.6015625 C15.40989416 28.30555746 13.70016175 26.97096138 12 25.625 C7.95663822 23.4348457 5.56204596 23.62606181 1 24 C0.01 24.33 -0.98 24.66 -2 25 C-1.85701852 22.52064036 -1.71066807 20.04155092 -1.5625 17.5625 C-1.52318359 16.87478516 -1.48386719 16.18707031 -1.44335938 15.47851562 C-1.12897985 10.27916202 -0.57701597 5.19314375 0 0 Z " fill="#FCF0D8" transform="translate(302,121)"/>
<path d="M0 0 C8.46997793 2.82332598 13.8142016 6.45330495 17.94921875 14.44140625 C22.90286512 24.97200548 21.62300055 35.45864406 18.07421875 46.31640625 C15.27588621 53.58285824 15.27588621 53.58285824 12.12890625 55.50390625 C9.23074073 56.64994889 7.16721366 56.69514032 4.07421875 56.31640625 C0.7297547 54.18811095 -1.8467955 52.20075496 -2.92578125 48.31640625 C-2.64583357 44.11719109 -1.9569919 40.30614356 -0.86328125 36.25390625 C0.32225504 31.71677865 0.80701097 27.45841428 -0.73828125 22.94140625 C-1.91851856 20.99695001 -1.91851856 20.99695001 -4.92578125 20.31640625 C-6.71697389 20.24154216 -8.50876613 20.18045737 -10.30078125 20.12890625 C-14.08725992 19.80291802 -16.48732923 19.54438582 -19.11328125 16.69140625 C-21.25028758 12.71215308 -21.71981127 10.76297438 -20.92578125 6.31640625 C-15.91244959 -1.90398315 -8.8154644 -2.05968794 0 0 Z " fill="#050303" transform="translate(194.92578125,195.68359375)"/>
<path d="M0 0 C3.21184918 3.70876752 4.77687249 7.91578986 6.57421875 12.4140625 C6.90291458 13.22491302 7.23161041 14.03576355 7.57026672 14.8711853 C8.26134217 16.57964909 8.94953134 18.28928287 9.63500977 20 C10.68764261 22.62535568 11.75031172 25.24647848 12.81445312 27.8671875 C13.48497056 29.52840557 14.15491256 31.18985605 14.82421875 32.8515625 C15.14291428 33.63802155 15.4616098 34.42448059 15.78996277 35.23477173 C18 40.76849941 18 40.76849941 18 43 C6.45 43 -5.1 43 -17 43 C-15.03504021 37.10512062 -13.02727039 31.39773571 -10.64453125 25.68359375 C-10.33803146 24.94166275 -10.03153168 24.19973175 -9.71574402 23.43531799 C-8.75086271 21.10151297 -7.78176602 18.76948689 -6.8125 16.4375 C-6.15141111 14.84061134 -5.49060139 13.24360708 -4.83007812 11.64648438 C-3.22327024 7.76298154 -1.61268346 3.88106638 0 0 Z " fill="#D8B59F" transform="translate(469,413)"/>
<path d="M0 0 C2.92937654 1.81310142 5.43647949 3.87295899 7 7 C7.41204834 11.63554388 6.87454146 14.30416098 4 18 C0.57840405 20.56619697 -2.84844133 20.50984054 -7 20 C-10.57513152 17.04663048 -12.74364334 14.87994881 -13.375 10.25 C-12.8528401 5.7246142 -11.15770622 4.2328897 -8 1 C-5.09704195 -0.45147903 -3.22738221 -0.37239025 0 0 Z " fill="#050503" transform="translate(440,303)"/>
</svg>
