<?xml version="1.0" encoding="UTF-8"?>
<svg version="1.1" xmlns="http://www.w3.org/2000/svg" width="512" height="512">
<path d="M0 0 C0.99628418 0.00131424 0.99628418 0.00131424 2.01269531 0.00265503 C19.31620853 0.07796701 37.20904086 2.98780257 50.125 15.625 C52.13484361 17.80961261 53.71988132 19.89232198 55.375 22.375 C57.31114126 23.29877894 57.31114126 23.29877894 59.6015625 23.91796875 C60.89030273 24.31495972 60.89030273 24.31495972 62.20507812 24.7199707 C63.12740234 24.99800537 64.04972656 25.27604004 65 25.5625 C84.18466487 31.68766524 104.73575484 41.21842954 115.15625 59.5 C120.60673719 70.19529562 122.56013112 81.22009066 119.3984375 93.01953125 C117.28440097 98.17492708 114.71792223 102.91777036 111.375 107.375 C112.1175 108.303125 112.1175 108.303125 112.875 109.25 C114.375 111.375 114.375 111.375 114.375 113.375 C115.44492187 113.46136719 116.51484375 113.54773438 117.6171875 113.63671875 C174.90374757 118.71395568 233.54967672 140.04179852 276.234375 179.421875 C277.96841258 181.00402608 279.72199382 182.48446881 281.5625 183.9375 C285.23379784 187.11929146 288.24874322 190.66682612 291.375 194.375 C292.13941406 195.23996094 292.90382813 196.10492188 293.69140625 196.99609375 C306.43971702 211.69954452 316.37471264 228.95937823 322.6875 247.375 C322.91791992 248.03741699 323.14833984 248.69983398 323.38574219 249.38232422 C324.13468704 251.69679475 324.76855103 254.01893593 325.375 256.375 C325.64497803 257.40850586 325.91495605 258.44201172 326.19311523 259.50683594 C328.96466505 271.85664475 328.86432141 284.22745274 328.82104492 296.83642578 C328.81254793 300.60374898 328.84136312 304.36954482 328.87304688 308.13671875 C328.97593998 343.58718177 318.89597598 376.47979638 296.375 404.375 C295.91657715 404.94476563 295.4581543 405.51453125 294.98583984 406.1015625 C284.32220514 419.2082702 272.67816927 430.99221914 259.11035156 441.08398438 C257.97978336 441.92507113 256.85385704 442.77244514 255.73339844 443.62695312 C220.30802932 470.64013489 176.06548948 486.44865451 132.375 493.375 C131.08867676 493.59929687 131.08867676 493.59929687 129.77636719 493.828125 C95.4515162 499.67708969 57.5620428 498.72035969 23.375 492.375 C22.23450195 492.17664551 21.09400391 491.97829102 19.91894531 491.77392578 C-6.8151848 487.05016959 -33.32962434 478.53368619 -57.625 466.375 C-58.34461914 466.02260254 -59.06423828 465.67020508 -59.80566406 465.30712891 C-81.63835768 454.55774376 -101.05028108 440.12119645 -118.625 423.375 C-119.40359375 422.64925781 -120.1821875 421.92351562 -120.984375 421.17578125 C-127.60644023 414.82376478 -133.18013068 407.73583771 -138.625 400.375 C-139.26139404 399.52107666 -139.26139404 399.52107666 -139.91064453 398.64990234 C-157.44320314 374.78671297 -167.94961248 345.9661002 -167.92578125 316.296875 C-167.93006638 315.08662659 -167.9343515 313.87637817 -167.93876648 312.62945557 C-167.9444734 310.08484519 -167.94503713 307.54021851 -167.94067383 304.99560547 C-167.93751978 301.14912407 -167.9610003 297.30341762 -167.98632812 293.45703125 C-168.0196716 280.7727434 -167.87796547 268.69166 -164.625 256.375 C-164.40062256 255.50456055 -164.17624512 254.63412109 -163.94506836 253.73730469 C-163.34237948 251.58598629 -162.67137053 249.48474947 -161.9375 247.375 C-161.68258789 246.63137207 -161.42767578 245.88774414 -161.16503906 245.12158203 C-154.31633888 225.83966808 -143.28672446 208.50221949 -129.625 193.375 C-128.71082564 192.35036021 -127.79676204 191.32562159 -126.8828125 190.30078125 C-123.6653796 186.72532541 -120.44951372 183.18591604 -117.01953125 179.8125 C-114.98106902 177.73745851 -113.28975795 175.79056214 -111.6875 173.375 C-111.24535156 172.735625 -110.80320313 172.09625 -110.34765625 171.4375 C-109.39435046 169.34849603 -109.39435046 169.34849603 -110.2734375 167.06640625 C-110.71945313 166.17824219 -111.16546875 165.29007813 -111.625 164.375 C-112.18316406 163.24964844 -112.74132812 162.12429687 -113.31640625 160.96484375 C-114.25432036 159.12669073 -115.19820428 157.29181087 -116.14648438 155.45898438 C-121.02335922 145.88125778 -121.67434464 132.76926886 -118.6484375 122.4140625 C-116.50753343 116.77941314 -113.8288513 111.47742985 -110.625 106.375 C-111.02332031 105.818125 -111.42164063 105.26125 -111.83203125 104.6875 C-112.36183594 103.924375 -112.89164063 103.16125 -113.4375 102.375 C-113.95957031 101.6325 -114.48164062 100.89 -115.01953125 100.125 C-118.73134087 93.76705846 -120.1877756 87.96656638 -120.125 80.625 C-120.11927979 79.8400415 -120.11355957 79.05508301 -120.10766602 78.24633789 C-119.69580316 64.71033333 -112.60372663 54.97646388 -103.125 45.875 C-90.92111961 35.29584196 -76.31942705 28.55356473 -60.75 24.625 C-54.55183332 22.82382336 -51.77512104 19.77610621 -47.79296875 14.84375 C-36.33058522 1.79108983 -16.15330164 -0.02331363 0 0 Z " fill="#CACFD7" transform="translate(175.625,7.625)"/>
<path d="M0 0 C0.99628418 0.00131424 0.99628418 0.00131424 2.01269531 0.00265503 C19.31620853 0.07796701 37.20904086 2.98780257 50.125 15.625 C52.13484361 17.80961261 53.71988132 19.89232198 55.375 22.375 C57.31114126 23.29877894 57.31114126 23.29877894 59.6015625 23.91796875 C60.89030273 24.31495972 60.89030273 24.31495972 62.20507812 24.7199707 C63.12740234 24.99800537 64.04972656 25.27604004 65 25.5625 C84.18466487 31.68766524 104.73575484 41.21842954 115.15625 59.5 C120.60673719 70.19529562 122.56013112 81.22009066 119.3984375 93.01953125 C117.28440097 98.17492708 114.71792223 102.91777036 111.375 107.375 C112.1175 108.303125 112.1175 108.303125 112.875 109.25 C114.375 111.375 114.375 111.375 114.375 113.375 C115.44492187 113.46136719 116.51484375 113.54773438 117.6171875 113.63671875 C174.90374757 118.71395568 233.54967672 140.04179852 276.234375 179.421875 C277.96841258 181.00402608 279.72199382 182.48446881 281.5625 183.9375 C285.23379784 187.11929146 288.24874322 190.66682612 291.375 194.375 C292.13941406 195.23996094 292.90382813 196.10492188 293.69140625 196.99609375 C306.43971702 211.69954452 316.37471264 228.95937823 322.6875 247.375 C322.91791992 248.03741699 323.14833984 248.69983398 323.38574219 249.38232422 C324.13468704 251.69679475 324.76855103 254.01893593 325.375 256.375 C325.64497803 257.40850586 325.91495605 258.44201172 326.19311523 259.50683594 C328.96466505 271.85664475 328.86432141 284.22745274 328.82104492 296.83642578 C328.81254793 300.60374898 328.84136312 304.36954482 328.87304688 308.13671875 C328.97593998 343.58718177 318.89597598 376.47979638 296.375 404.375 C295.91657715 404.94476563 295.4581543 405.51453125 294.98583984 406.1015625 C284.32220514 419.2082702 272.67816927 430.99221914 259.11035156 441.08398438 C257.97978336 441.92507113 256.85385704 442.77244514 255.73339844 443.62695312 C220.30802932 470.64013489 176.06548948 486.44865451 132.375 493.375 C131.08867676 493.59929687 131.08867676 493.59929687 129.77636719 493.828125 C95.4515162 499.67708969 57.5620428 498.72035969 23.375 492.375 C22.23450195 492.17664551 21.09400391 491.97829102 19.91894531 491.77392578 C-6.8151848 487.05016959 -33.32962434 478.53368619 -57.625 466.375 C-58.34461914 466.02260254 -59.06423828 465.67020508 -59.80566406 465.30712891 C-81.63835768 454.55774376 -101.05028108 440.12119645 -118.625 423.375 C-119.40359375 422.64925781 -120.1821875 421.92351562 -120.984375 421.17578125 C-127.60644023 414.82376478 -133.18013068 407.73583771 -138.625 400.375 C-139.26139404 399.52107666 -139.26139404 399.52107666 -139.91064453 398.64990234 C-157.44320314 374.78671297 -167.94961248 345.9661002 -167.92578125 316.296875 C-167.93006638 315.08662659 -167.9343515 313.87637817 -167.93876648 312.62945557 C-167.9444734 310.08484519 -167.94503713 307.54021851 -167.94067383 304.99560547 C-167.93751978 301.14912407 -167.9610003 297.30341762 -167.98632812 293.45703125 C-168.0196716 280.7727434 -167.87796547 268.69166 -164.625 256.375 C-164.40062256 255.50456055 -164.17624512 254.63412109 -163.94506836 253.73730469 C-163.34237948 251.58598629 -162.67137053 249.48474947 -161.9375 247.375 C-161.68258789 246.63137207 -161.42767578 245.88774414 -161.16503906 245.12158203 C-154.31633888 225.83966808 -143.28672446 208.50221949 -129.625 193.375 C-128.71082564 192.35036021 -127.79676204 191.32562159 -126.8828125 190.30078125 C-123.6653796 186.72532541 -120.44951372 183.18591604 -117.01953125 179.8125 C-114.98106902 177.73745851 -113.28975795 175.79056214 -111.6875 173.375 C-111.24535156 172.735625 -110.80320313 172.09625 -110.34765625 171.4375 C-109.39435046 169.34849603 -109.39435046 169.34849603 -110.2734375 167.06640625 C-110.71945313 166.17824219 -111.16546875 165.29007813 -111.625 164.375 C-112.18316406 163.24964844 -112.74132812 162.12429687 -113.31640625 160.96484375 C-114.25432036 159.12669073 -115.19820428 157.29181087 -116.14648438 155.45898438 C-121.02335922 145.88125778 -121.67434464 132.76926886 -118.6484375 122.4140625 C-116.50753343 116.77941314 -113.8288513 111.47742985 -110.625 106.375 C-111.02332031 105.818125 -111.42164063 105.26125 -111.83203125 104.6875 C-112.36183594 103.924375 -112.89164063 103.16125 -113.4375 102.375 C-113.95957031 101.6325 -114.48164062 100.89 -115.01953125 100.125 C-118.73134087 93.76705846 -120.1877756 87.96656638 -120.125 80.625 C-120.11927979 79.8400415 -120.11355957 79.05508301 -120.10766602 78.24633789 C-119.69580316 64.71033333 -112.60372663 54.97646388 -103.125 45.875 C-90.92111961 35.29584196 -76.31942705 28.55356473 -60.75 24.625 C-54.55183332 22.82382336 -51.77512104 19.77610621 -47.79296875 14.84375 C-36.33058522 1.79108983 -16.15330164 -0.02331363 0 0 Z M120.375 131.375 C120.24544922 133.00695312 120.24544922 133.00695312 120.11328125 134.671875 C119.11972089 145.59480588 117.39656149 155.43304176 110.4375 164.3125 C109.756875 165.323125 109.07625 166.33375 108.375 167.375 C109.40936115 170.98938696 111.26126704 173.87878547 113.3125 177 C119.76052032 187.70465965 121.42978416 199.93633515 118.4609375 212.12890625 C116.07380163 219.26721256 113.06554716 225.49029978 108.375 231.375 C107.43914062 232.57189453 107.43914062 232.57189453 106.484375 233.79296875 C86.00965169 258.24888826 50.99331746 267.93539304 20.42236328 271.140625 C10.10157448 271.93440462 -0.28707198 271.65471659 -10.625 271.375 C-11.83687988 271.3438208 -11.83687988 271.3438208 -13.07324219 271.31201172 C-22.77482569 271.00841557 -32.17769496 269.49530014 -41.625 267.375 C-42.38361328 267.20484375 -43.14222656 267.0346875 -43.92382812 266.859375 C-55.43853563 264.20577985 -66.0062262 260.5509269 -76.625 255.375 C-77.60855469 254.90320313 -78.59210938 254.43140625 -79.60546875 253.9453125 C-95.12844191 246.01582838 -109.88662717 233.64833009 -115.8828125 216.8515625 C-116.8586068 213.70582003 -117.77704279 210.55733352 -118.625 207.375 C-123.45192753 210.72825861 -126.27072869 214.78432002 -129.4375 219.625 C-129.96085937 220.41914307 -130.48421875 221.21328613 -131.0234375 222.03149414 C-135.87447131 229.52780146 -139.96823583 237.23603704 -143.625 245.375 C-144.03234375 246.27863281 -144.4396875 247.18226563 -144.859375 248.11328125 C-152.70962638 267.52755678 -154.00082199 290.00953915 -149.625 310.375 C-149.43035156 311.32890625 -149.23570312 312.2828125 -149.03515625 313.265625 C-144.39881022 333.78625712 -134.7436375 352.76353165 -120.625 368.375 C-119.88507813 369.22191406 -119.14515625 370.06882812 -118.3828125 370.94140625 C-116.16532665 373.45430111 -113.90924798 375.92273378 -111.625 378.375 C-110.94050781 379.11363281 -110.25601563 379.85226562 -109.55078125 380.61328125 C-79.36443307 412.02717039 -35.31443344 430.73801775 6.375 440.375 C7.62555176 440.66648926 7.62555176 440.66648926 8.90136719 440.96386719 C17.81628567 443.01290381 26.77063634 444.6797875 35.8125 446.0625 C36.59262451 446.18197998 37.37274902 446.30145996 38.17651367 446.42456055 C51.13314477 448.30784731 63.98393658 448.56134739 77.0546875 448.56030273 C80.10430961 448.56248519 83.15356674 448.58068481 86.203125 448.59960938 C97.45321183 448.63162881 108.25135883 448.07207142 119.375 446.375 C121.77018139 446.07802707 124.16594958 445.78571466 126.5625 445.5 C172.10003098 439.28816471 218.26659983 423.4691829 254.375 394.375 C255.15302979 393.74924072 255.15302979 393.74924072 255.94677734 393.11083984 C280.84118736 372.95182015 301.01082043 347.88007639 309.375 316.375 C309.60445313 315.53066406 309.83390625 314.68632812 310.0703125 313.81640625 C317.47497626 283.72844154 310.33911093 252.88305228 295.01953125 226.64453125 C288.96994916 216.65547913 281.3839258 207.84312222 273.375 199.375 C272.57964844 198.51519531 271.78429687 197.65539062 270.96484375 196.76953125 C237.08173311 161.35324818 187.12143924 142.2358114 139.9375 132.9375 C139.11604492 132.77338623 138.29458984 132.60927246 137.44824219 132.44018555 C131.71941796 131.39084064 126.19129378 131.20242106 120.375 131.375 Z " fill="#010101" transform="translate(175.625,7.625)"/>
<path d="M0 0 C1.957099 -0.00430527 1.957099 -0.00430527 3.95373535 -0.00869751 C6.69338859 -0.01307773 9.43274503 -0.00683121 12.17236328 0.00732422 C15.64493706 0.02441396 19.11681471 0.01454926 22.5893631 -0.00339317 C25.95546118 -0.01697774 29.3213823 -0.00740486 32.6875 0 C33.91392212 -0.00607269 35.14034424 -0.01214539 36.40393066 -0.0184021 C55.80995618 0.13733837 72.30452968 6.9320014 86.578125 20.0078125 C99.0533505 33.17132631 105.43123984 48.87206395 105.171875 66.984375 C104.48932572 74.08613775 102.14432562 80.78623808 99.73828125 87.46875 C97.35700131 95.26770176 98.57074647 102.38350199 101.34375 109.8984375 C104.70310971 119.02101708 105.30885272 128.19799235 101.84375 137.3984375 C101.34294922 138.73455078 101.34294922 138.73455078 100.83203125 140.09765625 C94.05257618 155.67208006 79.93694047 166.20751581 64.65625 172.7734375 C54.7096825 176.29924184 45.12449467 176.71101354 34.6328125 176.69921875 C33.17369467 176.70311698 31.71457795 176.70745391 30.25546265 176.71220398 C27.21128648 176.71962241 24.16722638 176.71940704 21.12304688 176.71411133 C17.25462845 176.70832317 13.38668984 176.72525302 9.5183506 176.748456 C6.50856834 176.76330882 3.49889858 176.76404949 0.48908615 176.76094627 C-0.93562393 176.76145373 -2.36034129 176.76658101 -3.78501511 176.77675819 C-15.6844098 176.85134872 -26.47983726 175.34356173 -37.15625 169.8984375 C-37.827771 169.55876953 -38.49929199 169.21910156 -39.19116211 168.86914062 C-46.23116375 165.11536525 -51.6601437 160.11304344 -57.15625 154.3984375 C-57.85492188 153.7075 -58.55359375 153.0165625 -59.2734375 152.3046875 C-65.12181753 146.18020369 -69.63181861 137.96415025 -70.15625 129.3984375 C-70.22972656 128.5734375 -70.30320312 127.7484375 -70.37890625 126.8984375 C-70.70021621 120.70292233 -69.79706096 115.69252462 -67.65625 109.8984375 C-63.5753432 98.63889645 -64.50689284 90.6746219 -68.96484375 79.625 C-73.56402771 67.16950509 -71.85849116 51.97823448 -66.6796875 39.9765625 C-58.27918367 23.63585641 -44.87634235 9.50881417 -27.15625 3.3984375 C-18.01680533 0.8113247 -9.47307777 -0.04690644 0 0 Z " fill="#F9D46E" transform="translate(351.15625,215.6015625)"/>
<path d="M0 0 C8.95125 -0.061875 17.9025 -0.12375 27.125 -0.1875 C31.28826904 -0.22846802 31.28826904 -0.22846802 35.53564453 -0.27026367 C52.92752915 -0.37196748 69.437772 0.87438653 86.42819214 4.60401917 C98.56275988 7.24834704 110.35838805 7.66371023 122.75 7.75 C124.82684665 7.77825421 126.90367107 7.8081942 128.98046875 7.83984375 C133.98718506 7.91564264 138.99246764 7.95720058 144 8 C144 20.87 144 33.74 144 47 C159.84 47.33 175.68 47.66 192 48 C192 74.4 192 100.8 192 128 C182.76 128.061875 173.52 128.12375 164 128.1875 C161.13828125 128.21481201 158.2765625 128.24212402 155.328125 128.27026367 C135.3579882 128.38002369 116.09199943 126.67675736 96.53515625 122.6484375 C89.46748985 121.35204786 82.42153692 120.84526159 75.24609375 120.68359375 C74.54746216 120.66494263 73.84883057 120.6462915 73.12902832 120.6270752 C70.5652913 120.55972952 68.00138439 120.4989799 65.4375 120.4375 C56.8059375 120.2209375 56.8059375 120.2209375 48 120 C48 107.46 48 94.92 48 82 C32.02681322 80.85905809 16.00696094 80.47079297 0 80 C0 53.6 0 27.2 0 0 Z " fill="#010100" transform="translate(72,296)"/>
<path d="M0 0 C1.957099 -0.00430527 1.957099 -0.00430527 3.95373535 -0.00869751 C6.69338859 -0.01307773 9.43274503 -0.00683121 12.17236328 0.00732422 C15.64493706 0.02441396 19.11681471 0.01454926 22.5893631 -0.00339317 C25.95546118 -0.01697774 29.3213823 -0.00740486 32.6875 0 C33.91392212 -0.00607269 35.14034424 -0.01214539 36.40393066 -0.0184021 C55.80995618 0.13733837 72.30452968 6.9320014 86.578125 20.0078125 C99.0533505 33.17132631 105.43123984 48.87206395 105.171875 66.984375 C104.48932572 74.08613775 102.14432562 80.78623808 99.73828125 87.46875 C97.35700131 95.26770176 98.57074647 102.38350199 101.34375 109.8984375 C104.70310971 119.02101708 105.30885272 128.19799235 101.84375 137.3984375 C101.34294922 138.73455078 101.34294922 138.73455078 100.83203125 140.09765625 C94.05257618 155.67208006 79.93694047 166.20751581 64.65625 172.7734375 C54.7096825 176.29924184 45.12449467 176.71101354 34.6328125 176.69921875 C33.17369467 176.70311698 31.71457795 176.70745391 30.25546265 176.71220398 C27.21128648 176.71962241 24.16722638 176.71940704 21.12304688 176.71411133 C17.25462845 176.70832317 13.38668984 176.72525302 9.5183506 176.748456 C6.50856834 176.76330882 3.49889858 176.76404949 0.48908615 176.76094627 C-0.93562393 176.76145373 -2.36034129 176.76658101 -3.78501511 176.77675819 C-15.6844098 176.85134872 -26.47983726 175.34356173 -37.15625 169.8984375 C-37.827771 169.55876953 -38.49929199 169.21910156 -39.19116211 168.86914062 C-46.23116375 165.11536525 -51.6601437 160.11304344 -57.15625 154.3984375 C-57.85492188 153.7075 -58.55359375 153.0165625 -59.2734375 152.3046875 C-65.12181753 146.18020369 -69.63181861 137.96415025 -70.15625 129.3984375 C-70.22972656 128.5734375 -70.30320312 127.7484375 -70.37890625 126.8984375 C-70.70021621 120.70292233 -69.79706096 115.69252462 -67.65625 109.8984375 C-63.5753432 98.63889645 -64.50689284 90.6746219 -68.96484375 79.625 C-73.56402771 67.16950509 -71.85849116 51.97823448 -66.6796875 39.9765625 C-58.27918367 23.63585641 -44.87634235 9.50881417 -27.15625 3.3984375 C-18.01680533 0.8113247 -9.47307777 -0.04690644 0 0 Z M-45.15625 35.3984375 C-47.42968325 38.61078285 -49.34814755 41.90526915 -51.15625 45.3984375 C-51.57132812 46.16800781 -51.98640625 46.93757813 -52.4140625 47.73046875 C-55.97934677 55.24748419 -57.07281552 64.29690767 -54.54980469 72.32910156 C-53.79021092 74.28732035 -52.98608167 76.21897667 -52.15625 78.1484375 C-47.32603255 89.54006274 -47.3092866 101.46474971 -51.65625 113.0234375 C-52.33494141 114.69019531 -52.33494141 114.69019531 -53.02734375 116.390625 C-55.61895354 123.29560611 -54.54945642 129.21364753 -51.6015625 135.8515625 C-44.44941519 148.45480588 -31.93226794 155.80183278 -18.40019226 159.93476868 C-15.58277047 160.51693635 -12.93972442 160.53357322 -10.06176758 160.54370117 C-8.82981155 160.55008102 -7.59785553 160.55646088 -6.3285675 160.56303406 C-4.98597249 160.56456345 -3.64337694 160.56567703 -2.30078125 160.56640625 C-0.91558295 160.56962252 0.46961502 160.57298687 1.85481262 160.57649231 C4.75909206 160.58247637 7.66334178 160.58433309 10.56762695 160.58374023 C14.26825642 160.58363897 17.96869245 160.59725674 21.66927624 160.61451244 C24.53224033 160.62569884 27.39515877 160.62765737 30.25814247 160.62713051 C32.27922109 160.62886758 34.30028546 160.63967087 36.32133484 160.65068054 C53.58291932 160.6081168 67.15725671 155.73946226 79.65625 143.64453125 C85.31658676 137.54551839 88.61284542 130.56746854 88.31640625 122.1640625 C87.75135647 118.85782079 86.6108631 116.06554509 85.34375 112.9609375 C80.59044388 100.41711247 81.46627488 88.3761118 86.68408203 76.18505859 C90.4040206 67.19803033 90.26181769 58.17021917 86.78125 49.0859375 C80.05694111 34.99330141 70.24369202 24.38428931 55.59375 18.5859375 C50.30619414 16.91154481 45.37890954 16.27503271 39.84521484 16.22143555 C38.68315521 16.20860031 37.52109558 16.19576508 36.32382202 16.18254089 C35.08000763 16.17515396 33.83619324 16.16776703 32.5546875 16.16015625 C30.61246811 16.14804863 30.61246811 16.14804863 28.63101196 16.13569641 C25.89251848 16.1207208 23.15405039 16.11085971 20.41552734 16.10327148 C16.93923974 16.09224817 13.46359943 16.05787545 9.98753929 16.01809978 C6.63495083 15.98536807 3.28242317 15.98113278 -0.0703125 15.97265625 C-1.30198151 15.95514816 -2.53365051 15.93764008 -3.80264282 15.91960144 C-20.21901775 15.96026895 -34.65507719 22.63547362 -45.15625 35.3984375 Z " fill="#020202" transform="translate(351.15625,215.6015625)"/>
<path d="M0 0 C1.29863983 -0.0004985 2.59727966 -0.00099701 3.93527222 -0.00151062 C6.66676677 -0.00142155 9.39796215 0.00887492 12.12939453 0.02709961 C15.61028051 0.04982985 19.09073256 0.05031561 22.57167244 0.04358196 C25.92283009 0.03941731 29.2738572 0.05142591 32.625 0.0625 C34.4846489 0.06113289 34.4846489 0.06113289 36.38186646 0.05973816 C42.67302104 0.11106409 48.16429757 0.49135457 54.1796875 2.36328125 C55.49259766 2.77126953 55.49259766 2.77126953 56.83203125 3.1875 C71.41607517 8.6970277 80.29033603 19.64477408 86.83203125 33.32421875 C89.93541041 40.32256364 90.84096438 48.87081277 88.58642578 56.32470703 C87.82690655 58.2754147 87.0177227 60.1950529 86.1796875 62.11328125 C81.35491457 73.47235924 81.31386725 85.40451923 85.6796875 96.92578125 C86.35451172 98.59447266 86.35451172 98.59447266 87.04296875 100.296875 C89.20058671 106.11725334 89.19586025 110.58311848 87.0703125 116.3984375 C80.87924977 129.82904939 70.21671141 137.26239246 56.6640625 142.63671875 C48.98860824 144.88142707 41.06444621 144.55666276 33.13671875 144.6015625 C32.46306463 144.60563803 31.78941051 144.60971355 31.09534264 144.61391258 C27.52832737 144.6346818 23.96134951 144.6490218 20.39428711 144.65844727 C16.74428759 144.66948394 13.09490227 144.70387771 9.4451189 144.74361897 C6.60777288 144.76998449 3.77056888 144.7781566 0.93311119 144.78172874 C-1.05633423 144.78885842 -3.04568172 144.81520518 -5.03495789 144.84211731 C-21.21679997 144.80387139 -33.85357859 138.7213756 -45.6171875 127.80859375 C-51.02023874 121.81159007 -54.21346564 114.20548477 -54.1875 106.1171875 C-53.74233008 102.77841309 -52.60829661 100.09909033 -51.3203125 96.98828125 C-46.5896474 84.40932075 -47.43014121 72.37061929 -52.66064453 60.14990234 C-56.397538 51.12191259 -56.23427701 42.09506288 -52.6953125 32.98828125 C-46.02231674 19.04415006 -36.46173227 8.31880768 -21.79443359 2.56912231 C-14.49405972 0.11378143 -7.65391924 -0.05704432 0 0 Z M-24.8203125 34.36328125 C-35.39645218 47.26263153 -40.05475125 61.55559748 -39.06298828 78.10986328 C-37.9656681 88.29926495 -33.78715627 98.10504644 -27.8203125 106.36328125 C-27.16289062 107.29333984 -27.16289062 107.29333984 -26.4921875 108.2421875 C-18.19679312 118.89747855 -4.93906663 125.88685092 8.1796875 128.36328125 C25.03024105 130.28094172 39.45561616 125.96874962 53.1328125 115.9296875 C63.74405658 107.41762431 71.14254128 93.74783698 73.1796875 80.36328125 C74.79924065 63.03976834 70.2334656 48.4146394 59.4296875 34.61328125 C49.79031793 24.1578804 35.43793835 16.83922601 21.13671875 16.02734375 C3.62256511 15.64455501 -12.60952205 21.28029149 -24.8203125 34.36328125 Z " fill="#E3E6EA" transform="translate(350.8203125,231.63671875)"/>
<path d="M0 0 C3.94689081 1.42346882 7.1852623 3.32679957 10.6875 5.625 C35.91486996 21.53088424 64.84472269 26.4143862 94.1875 27.5625 C95.23486328 27.60568359 96.28222656 27.64886719 97.36132812 27.69335938 C99.90746397 27.79799509 102.45367178 27.90017546 105 28 C105.02578125 28.83402344 105.0515625 29.66804688 105.078125 30.52734375 C105.5621223 40.13029017 106.66464827 47.25470982 113.9375 53.9375 C120.08232251 58.80825839 125.21977912 59.89207177 133 59 C139.2347052 57.47107817 143.69306124 55.07094242 147.74609375 50.07421875 C151.90828212 43.18910341 152.50647371 37.51214043 152.6875 29.5625 C152.72166016 28.54478516 152.75582031 27.52707031 152.79101562 26.47851562 C152.87293627 23.98578734 152.94226649 21.49338598 153 19 C154.1859375 18.59910156 155.371875 18.19820312 156.59375 17.78515625 C169.1537101 13.41896931 181.4789098 8.33249249 192 0 C195.37534275 1.37278091 196.6632735 2.5776937 198.1875 5.875 C198.51105469 6.55304688 198.83460938 7.23109375 199.16796875 7.9296875 C202.28714128 15.69100881 202.03242769 24.19442221 199.1875 32 C190.77573738 50.13043752 171.86093288 60.18268533 153.96875 66.95703125 C142.48679404 71.08813931 131.11250341 73.63549268 119 75 C118.23679443 75.0920874 117.47358887 75.1841748 116.68725586 75.27905273 C81.24998433 79.25542971 40.77434765 74.25362062 11.625 52.125 C2.2112196 44.07394655 -5.63259167 35.6206943 -7.4375 22.921875 C-7.79631494 14.17576085 -5.43452621 6.85155167 0 0 Z " fill="#DDB089" transform="translate(79,188)"/>
<path d="M0 0 C3.91421148 3.20253667 7.5492977 6.52352223 11.07250977 10.15576172 C26.89390421 26.42045592 45.97016571 38.55249067 66 49 C66.79083984 49.4125 67.58167969 49.825 68.39648438 50.25 C92.03697761 62.40254271 117.09946472 70.29021571 143 76 C143.78810059 76.17611816 144.57620117 76.35223633 145.38818359 76.53369141 C150.23707249 77.58720729 155.08509052 78.35036185 160 79 C160.96808594 79.13390137 161.93617188 79.26780273 162.93359375 79.40576172 C196.9241414 83.94021503 231.1743062 83.45622106 265 78 C267.11314712 77.68399756 269.2264222 77.36884926 271.33984375 77.0546875 C284.22309484 75.05955457 296.58543965 71.95018598 309 68 C309.98274902 67.69497559 310.96549805 67.38995117 311.97802734 67.07568359 C354.29748048 53.81456494 390.0046599 31.61250395 421 0 C421 10.11742876 404.32614235 24.67546911 397.4375 31.8125 C392.89617993 36.18967597 387.93636617 40.08296139 383 44 C381.98679687 44.81855469 380.97359375 45.63710938 379.9296875 46.48046875 C372.04341267 52.77627549 363.80009916 58.07563374 355 63 C354.24251465 63.42925781 353.4850293 63.85851562 352.70458984 64.30078125 C283.01908484 103.46801386 198.9697946 108.20758964 123 87 C77.38181314 74.1494007 33.36874933 47.35622407 4.9375 9 C4.44749512 8.3402417 3.95749023 7.6804834 3.45263672 7.00073242 C0 2.24856332 0 2.24856332 0 0 Z " fill="#A5ADB8" transform="translate(45,389)"/>
<path d="M0 0 C3.97743975 0.66937401 6.94798468 2.62893817 10.375 4.6875 C22.06886755 11.49233731 34.04281919 15.82029133 47.00561523 19.55297852 C54.52775248 21.73864164 54.52775248 21.73864164 58.0703125 23.69921875 C62.35300858 25.60073581 66.2501071 25.27331297 70.875 25.125 C82.95683048 24.9188606 94.92881515 25.43194424 107 26 C107 41.84 107 57.68 107 74 C78.90694165 74 78.90694165 74 70.5 72.5 C69.48502441 72.32694336 68.47004883 72.15388672 67.42431641 71.97558594 C42.12568256 67.30206807 15.77320132 57.39318053 0 36 C-4.66184135 28.05962069 -6.4495214 20.14313501 -5 11 C-3.65741562 7.1296533 -2.00319467 3.56997906 0 0 Z " fill="#DDB08A" transform="translate(77,126)"/>
<path d="M0 0 C12.37369741 8.9760959 21.38967868 22.28080303 24.10546875 37.52734375 C25.77969413 55.29175623 21.16934325 70.77168856 9.85546875 84.71484375 C0.72780737 94.62145216 -13.47565211 102.13037192 -27.05859375 102.86328125 C-43.68783264 103.20049813 -58.70439711 98.97048849 -71.125 87.359375 C-82.60137639 75.47765198 -88.43212846 60.32391936 -88.31640625 43.94018555 C-87.8637185 30.55760383 -82.19068133 17.33206424 -73.0703125 7.50390625 C-52.2333568 -11.42517739 -24.07797522 -15.85032539 0 0 Z M-63.14453125 20.90234375 C-70.50092194 29.95790077 -72.918961 40.01531447 -71.89453125 51.52734375 C-69.43931342 63.73368238 -64.03514336 73.20780418 -53.89453125 80.52734375 C-43.90990472 86.53313415 -33.28494894 88.38484503 -21.7890625 85.83984375 C-11.0848034 82.2163992 -1.54353233 75.7969858 3.61328125 65.5234375 C8.28752728 54.63912175 10.4867729 43.59615039 5.98046875 32.21484375 C0.89468916 21.37184737 -6.60036166 12.96433895 -17.89453125 8.52734375 C-35.0226727 2.91255655 -51.14831883 7.77216101 -63.14453125 20.90234375 Z " fill="#030303" transform="translate(399.89453125,257.47265625)"/>
<path d="M0 0 C2.88305408 0.42334809 5.59621577 1.17064106 8.3984375 1.97265625 C25.57680184 6.803524 47.91973136 8.04599432 64.7109375 0.8359375 C67.42279904 -0.15440101 68.36218441 -0.11331876 71 1 C75.8594188 8.7298391 75.56784064 17.95994172 75.50170898 26.75537109 C75.50550047 28.20699587 75.51100731 29.65861701 75.51808167 31.11022949 C75.53193816 35.01903674 75.52093975 38.92739904 75.50437045 42.83618116 C75.49043731 46.9390996 75.49698878 51.04199437 75.50050354 55.14492798 C75.50319734 62.02589021 75.48979556 68.90667714 75.46655273 75.78759766 C75.43988464 83.73749617 75.43821907 91.68710297 75.4499411 99.63703096 C75.4607217 107.30172536 75.45453371 114.96631448 75.44038582 122.63100052 C75.43463484 125.88688274 75.43470153 129.14268768 75.43945122 132.39857101 C75.44422602 136.22859915 75.43409887 140.05830778 75.41249657 143.88827515 C75.40693768 145.29232328 75.40645518 146.69640217 75.41144943 148.10045242 C75.41741574 150.01834052 75.40304517 151.93625963 75.38768005 153.85409546 C75.38525016 154.92660238 75.38282026 155.99910931 75.38031673 157.10411644 C74.94423759 160.42459724 73.97234622 162.31596577 72 165 C69.19084526 166.40457737 67.11189466 166.24895157 64 166 C60.8640843 164.22015595 60.15897264 163.47691793 59 160 C58.90707169 158.38120946 58.87103661 156.75885938 58.86869812 155.1374054 C58.86468994 154.1351442 58.86068176 153.132883 58.85655212 152.10025024 C58.85708084 151.00151581 58.85760956 149.90278137 58.8581543 148.77075195 C58.85467987 147.61273575 58.85120544 146.45471954 58.84762573 145.26161194 C58.8402649 142.74235325 58.83492126 140.22308807 58.83133507 137.70382118 C58.82417689 133.71495505 58.80886738 129.72617372 58.78999329 125.73735046 C58.78365586 124.37053781 58.77733024 123.00372511 58.77101612 121.63691235 C58.76785031 120.9523822 58.7646845 120.26785205 58.76142275 119.56257856 C58.71939194 110.2778189 58.68639021 100.99310038 58.67407227 91.70825195 C58.66567581 85.4436085 58.64312541 79.17918499 58.6047166 72.91465157 C58.58500588 69.60220885 58.5747552 66.2901662 58.57755089 62.97765541 C58.57990543 59.27684184 58.55772281 55.57691447 58.5300293 51.8762207 C58.53663071 50.78760742 58.54323212 49.69899414 58.55003357 48.57739258 C58.45657225 40.9584457 57.14135324 35.71780775 52.10546875 29.7578125 C45.68766886 24.29418652 39.91901929 22.46527675 31.484375 22.6953125 C24.30204014 23.57616489 20.00809902 27.56494463 15.4453125 32.90234375 C12.6250867 36.99548228 11.75556449 40.63112169 11.69140625 45.5625 C11.66626953 46.60664062 11.64113281 47.65078125 11.61523438 48.7265625 C11.58007908 50.90879475 11.54882878 53.0910934 11.52148438 55.2734375 C11.49505859 56.31757812 11.46863281 57.36171875 11.44140625 58.4375 C11.42122437 59.85869141 11.42122437 59.85869141 11.40063477 61.30859375 C10.9265911 64.49315034 9.87367361 66.40211417 8 69 C5.19084526 70.40457737 3.11189466 70.24895157 0 70 C-3.1359157 68.22015595 -3.84102736 67.47691793 -5 64 C-5.10702023 62.3559384 -5.15865474 60.70798587 -5.17700195 59.06054688 C-5.18983719 58.05519897 -5.20267242 57.04985107 -5.21589661 56.01403809 C-5.22328354 54.92659302 -5.23067047 53.83914795 -5.23828125 52.71875 C-5.246353 51.59488892 -5.25442474 50.47102783 -5.26274109 49.31311035 C-5.27658342 46.92913352 -5.2873049 44.54513687 -5.29516602 42.16113281 C-5.3123015 38.54192566 -5.35617861 34.92365047 -5.40039062 31.3046875 C-5.41052467 28.98438169 -5.41903854 26.66406814 -5.42578125 24.34375 C-5.44328934 23.27249878 -5.46079742 22.20124756 -5.47883606 21.09753418 C-5.4600165 14.46812482 -5.02297804 5.02297804 0 0 Z " fill="#FAD56F" transform="translate(141,66)"/>
<path d="M0 0 C1.51953125 1.3203125 1.51953125 1.3203125 2.8125 3.125 C3.25207031 3.70507812 3.69164062 4.28515625 4.14453125 4.8828125 C6.12705917 9.78934278 3.2479581 15.06874421 1.48828125 19.71875 C-2.43038665 31.2818227 -1.78475309 43.43430004 -1.8125 55.5 C-1.83568947 57.88413701 -1.86106387 60.26825381 -1.88867188 62.65234375 C-1.950949 68.43490465 -1.98634295 74.21713033 -2 80 C-18.40305869 75.96479302 -37.05310242 67.71947574 -46.3984375 52.76171875 C-49.48852375 46.76782805 -50.87599565 41.66787274 -50 35 C-46.07453881 22.76405025 -35.87778372 14.95199487 -25 9 C-7.34811759 0 -7.34811759 0 0 0 Z " fill="#DDB08A" transform="translate(122,48)"/>
<path d="M0 0 C7.49292274 1.3737025 14.08641112 3.81868275 21 7 C22.38058594 7.63035156 22.38058594 7.63035156 23.7890625 8.2734375 C34.27334297 13.5004707 43.5749601 21.52406089 49 32 C51.06275245 38.18825735 50.76613354 44.11636437 48.0625 50.0625 C39.69798785 65.01084384 22.70472657 73.87762894 6.78540039 78.58496094 C5.43968712 78.98421783 5.43968712 78.98421783 4.06678772 79.39154053 C3.38474777 79.59233215 2.70270782 79.79312378 2 80 C1.99857498 79.3965979 1.99714996 78.7931958 1.99568176 78.17150879 C1.97577792 71.81034644 1.92107038 65.45011725 1.84741211 59.08935547 C1.82441666 56.7251661 1.80988041 54.36087698 1.80444336 51.99658203 C1.76993168 39.45025894 1.63953173 27.98410195 -2.8371582 16.15429688 C-3.97782748 13.06014464 -4.66084355 10.27654626 -5 7 C-4.00390625 4.8828125 -4.00390625 4.8828125 -2.5625 3.125 C-2.08941406 2.52945313 -1.61632812 1.93390625 -1.12890625 1.3203125 C-0.75636719 0.88460937 -0.38382813 0.44890625 0 0 Z " fill="#DDB08A" transform="translate(230,48)"/>
<path d="M0 0 C0.99 0 1.98 0 3 0 C7.94505332 8.81279146 9.76137318 16.75764793 7.3359375 26.73046875 C1.74618679 42.40607399 -12.53166232 53.01430605 -27 60 C-33.435 62.475 -33.435 62.475 -40 65 C-40 49.49 -40 33.98 -40 18 C-33.07 15.69 -26.14 13.38 -19 11 C-8.92068922 6.48473101 -8.92068922 6.48473101 0 0 Z " fill="#DCB089" transform="translate(272,126)"/>
<path d="M0 0 C44.76321991 -0.8177654 44.76321991 -0.8177654 66 4 C77.0569338 6.38709772 87.75810733 7.19590353 99.0625 7.5625 C100.30966797 7.60568359 101.55683594 7.64886719 102.84179688 7.69335938 C105.89442762 7.7986225 108.94720106 7.89973337 112 8 C112 12.62 112 17.24 112 22 C103.36989517 23.84510759 95.18946845 24.35044529 86.375 24.3125 C85.37889709 24.31026428 85.37889709 24.31026428 84.3626709 24.3079834 C74.7229863 24.26917676 65.72953246 23.54748875 56.29345703 21.47949219 C37.60892308 17.5731238 19.05078103 16.28561891 0 16 C0 10.72 0 5.44 0 0 Z " fill="#FC806C" transform="translate(88,312)"/>
<path d="M0 0 C44.76321991 -0.8177654 44.76321991 -0.8177654 66 4 C77.0569338 6.38709772 87.75810733 7.19590353 99.0625 7.5625 C100.30966797 7.60568359 101.55683594 7.64886719 102.84179688 7.69335938 C105.89442762 7.7986225 108.94720106 7.89973337 112 8 C112 12.62 112 17.24 112 22 C91.19941471 27.04256613 66.90514557 24.52560823 46.23046875 19.7265625 C31.04957277 16.31223765 15.48346322 16.4105873 0 16 C0 10.72 0 5.44 0 0 Z " fill="#FC806D" transform="translate(136,352)"/>
<path d="M0 0 C16.63121726 -0.32143369 32.73854623 -0.42779597 48.98681641 3.47753906 C63.48437547 6.93046504 77.62826176 7.26242268 92.4375 7.125 C94.34439629 7.11494065 96.25129778 7.10582007 98.15820312 7.09765625 C102.77237321 7.07762077 107.38580228 7.03843385 112 7 C112 12.61 112 18.22 112 24 C65.2826104 24.79414981 65.2826104 24.79414981 44.68261719 20.53027344 C40.04361 19.61328002 35.37130265 18.9547893 30.6875 18.3125 C29.80054443 18.18987793 28.91358887 18.06725586 27.99975586 17.94091797 C18.69684493 16.72313841 9.37151943 16.2947658 0 16 C0 10.72 0 5.44 0 0 Z " fill="#F96C50" transform="translate(136,384)"/>
<path d="M0 0 C8.61840441 0.28728015 16.31714879 2.9994804 22.95703125 8.671875 C29.13707286 15.49338928 32 22.86900522 32 32 C26.72 32 21.44 32 16 32 C15.62875 30.618125 15.2575 29.23625 14.875 27.8125 C13.19132907 22.80869295 11.45369198 20.82638145 7 18 C4.69 17.34 2.38 16.68 0 16 C0 10.72 0 5.44 0 0 Z " fill="#030301" transform="translate(368,272)"/>
<path d="M0 0 C4.39587435 -0.02696855 8.79158323 -0.04682429 13.1875 -0.0625 C14.43337891 -0.07087891 15.67925781 -0.07925781 16.96289062 -0.08789062 C18.16494141 -0.09111328 19.36699219 -0.09433594 20.60546875 -0.09765625 C22.26292114 -0.10551147 22.26292114 -0.10551147 23.95385742 -0.11352539 C27 0 27 0 32 1 C32 6.61 32 12.22 32 18 C30.06125 17.855625 28.1225 17.71125 26.125 17.5625 C17.4222331 16.93832614 8.71254842 16.46427412 0 16 C0 10.72 0 5.44 0 0 Z " fill="#F86C50" transform="translate(88,344)"/>
<path d="M0 0 C2.62868183 1.65110469 3.59350965 2.32706812 5 5 C5.62909235 9.61589808 5.46877863 14.16501384 5.3125 18.8125 C5.28994141 20.07771484 5.26738281 21.34292969 5.24414062 22.64648438 C5.18530392 25.76482979 5.09562681 28.88256589 5 32 C-0.61 32 -6.22 32 -12 32 C-11.96702342 27.60212348 -11.89985457 23.20934651 -11.8125 18.8125 C-11.80669922 17.56662109 -11.80089844 16.32074219 -11.79492188 15.03710938 C-11.54623429 4.73039075 -11.54623429 4.73039075 -8.63671875 1.67578125 C-5.3486964 -0.41393962 -3.82195372 -0.79624036 0 0 Z " fill="#DBAF88" transform="translate(179,104)"/>
<path d="M0 0 C1.09570312 0.00902344 2.19140625 0.01804687 3.3203125 0.02734375 C4.16335937 0.03894531 5.00640625 0.05054687 5.875 0.0625 C8.74730962 6.02806613 11.00974875 12.10958814 13.125 18.375 C13.39521973 19.16374512 13.66543945 19.95249023 13.94384766 20.76513672 C14.31968994 21.89653076 14.31968994 21.89653076 14.703125 23.05078125 C14.9290332 23.72665283 15.15494141 24.40252441 15.38769531 25.09887695 C15.875 27.0625 15.875 27.0625 15.875 31.0625 C12.72569107 32.11226964 10.48685544 32.16381595 7.1875 32.125 C6.19363281 32.11597656 5.19976562 32.10695312 4.17578125 32.09765625 C3.03689453 32.08025391 3.03689453 32.08025391 1.875 32.0625 C-0.84786887 25.68778346 -3.16362544 19.19087947 -5.375 12.625 C-5.64521973 11.83174316 -5.91543945 11.03848633 -6.19384766 10.22119141 C-6.44440918 9.4688623 -6.6949707 8.7165332 -6.953125 7.94140625 C-7.1790332 7.2666626 -7.40494141 6.59191895 -7.63769531 5.89672852 C-8.125 4.0625 -8.125 4.0625 -8.125 1.0625 C-5.36047967 -0.31976016 -3.0788637 -0.03275387 0 0 Z " fill="#F6C027" transform="translate(172.125,23.9375)"/>
<path d="M0 0 C3.30576309 1.65288155 3.57703451 5.03833167 4.71289062 8.40625 C5.19532227 9.87578125 5.19532227 9.87578125 5.6875 11.375 C6.02072266 12.34695312 6.35394531 13.31890625 6.69726562 14.3203125 C7.16229492 15.72023438 7.16229492 15.72023438 7.63671875 17.1484375 C7.92248779 18.00614746 8.20825684 18.86385742 8.50268555 19.74755859 C9 22 9 22 8 25 C-5.66484408 19.80382143 -5.66484408 19.80382143 -10 15 C-11.125 12 -11.125 12 -11 9 C-8.34377272 4.35160226 -4.69779155 2.26189963 0 0 Z " fill="#F1BC26" transform="translate(147,29)"/>
<path d="M0 0 C10.16988893 2.25997532 10.16988893 2.25997532 13.9375 4.9375 C14.66839844 5.44152344 15.39929688 5.94554687 16.15234375 6.46484375 C18 8 18 8 20 11 C20.125 13.8125 20.125 13.8125 19 17 C15.71565829 20.16704379 12.33333392 22.55555536 8 24 C5.36 16.08 2.72 8.16 0 0 Z " fill="#F6C027" transform="translate(196,27)"/>
</svg>
