<?xml version="1.0" encoding="UTF-8"?>
<svg version="1.1" xmlns="http://www.w3.org/2000/svg" width="512" height="512">
<path d="M0 0 C24.42 0 48.84 0 74 0 C74 5.61 74 11.22 74 17 C54.53 17 35.06 17 15 17 C12.525 30.365 12.525 30.365 10 44 C8.60869278 51.2249976 7.20972204 58.44799159 5.79296875 65.66796875 C5.41885226 67.57991762 5.04485706 69.49189022 4.67097473 71.40388489 C3.7072185 76.33077033 2.74186507 81.25734136 1.77612305 86.18383789 C0.60667771 92.15135593 -0.56068527 98.11928166 -1.72841644 104.08713531 C-3.4840569 113.05839546 -5.24226361 122.02914913 -7 131 C19.73 131.33 46.46 131.66 74 132 C74 153.78 74 175.56 74 198 C83.29683871 198.09097812 83.29683871 198.09097812 86.296875 194.85546875 C86.77640625 193.97503906 87.2559375 193.09460938 87.75 192.1875 C91.0970293 186.66174409 93.77274306 184.07575231 100 182 C108.30602066 181.37674881 113.93208798 181.72582691 120.5625 187.0625 C124.95765406 192.35922412 127.50855991 198.62919428 130 205 C132.34148231 205.12213894 132.34148231 205.12213894 135 204 C136.26230058 202.30321798 136.26230058 202.30321798 137.375 200.25 C140.0852414 195.48784082 143.59021599 192.1012967 148.88671875 190.390625 C155.62850527 189.14445374 162.18751251 189.18237375 168.21484375 192.66015625 C171.87170707 195.40480421 175.20969416 198.81480434 176.78125 203.16015625 C177.90289904 205.30909546 177.90289904 205.30909546 180.7578125 205.65234375 C181.86898438 205.74644531 182.98015625 205.84054688 184.125 205.9375 C192.07819506 206.94589849 196.55458972 209.50523482 202.11743164 215.10058594 C202.65735245 215.64293884 203.19727325 216.18529175 203.7535553 216.74407959 C204.37054543 217.36576019 204.37054543 217.36576019 205 218 C211.10988397 206.00742003 216.83068115 193.85972061 222.4375 181.625 C223.65685826 178.97097512 224.87694801 176.31728755 226.09718323 173.66366577 C226.84797952 172.03021145 227.59811973 170.39645537 228.34751892 168.76235962 C230.89468746 163.21062508 230.89468746 163.21062508 232 161 C231.93848887 158.91706309 231.93848887 158.91706309 231.625 156.625 C231.53476562 155.85414063 231.44453125 155.08328125 231.3515625 154.2890625 C231.05453293 152.05108015 231.05453293 152.05108015 230.4765625 150.125 C228.00986879 139.12597229 230.34045875 128.43106933 235.75 118.8125 C242.16718679 108.81107962 250.58194501 103.00302338 262.0625 99.625 C276.02557613 97.40863871 287.56734515 100.21288392 299.1875 108.1875 C308.56568467 117.56568467 313.33500394 127.78122502 313.5 141 C313.35925316 153.27160275 309.59175424 162.54800027 300.7890625 171.1640625 C294.78291552 176.65140608 294.78291552 176.65140608 291.61206055 178.06323242 C287.77888525 180.90542138 286.68895886 184.39433803 284.9609375 188.75 C284.59774414 189.62830978 284.23455078 190.50661957 283.86035156 191.4115448 C282.6832914 194.2683679 281.52903964 197.13380981 280.375 200 C279.57384435 201.95671642 278.77126798 203.91285173 277.96728516 205.8684082 C275.98957227 210.6886422 274.02969054 215.51587981 272.07568359 220.34576416 C270.51911603 224.1865752 268.94770463 228.02124391 267.375 231.85546875 C264.89957181 237.89676093 262.44118073 243.94478536 260 250 C260.61335205 250.29406738 261.2267041 250.58813477 261.85864258 250.89111328 C277.83162939 259.16261095 287.60393331 278.98027692 293.375 295.25 C295.18673031 301.08601623 296.13672062 306.95704435 297 313 C302.28 313.33 307.56 313.66 313 314 C313.09109727 323.20713064 313.16416873 332.41395217 313.20724869 341.62143517 C313.2279458 345.89883817 313.25592721 350.1759116 313.30175781 354.453125 C313.34586544 358.596423 313.36927064 362.73940811 313.37950897 366.88292313 C313.38678598 368.44785094 313.40098764 370.01276558 313.42292023 371.57755661 C313.809818 400.37969204 303.33185959 426.92770598 283.37792969 447.76464844 C259.80828859 471.51179087 230.63851276 480.25914315 197.76402175 480.41027939 C194.15952519 480.41982591 190.55512788 480.41425297 186.95063221 480.40683305 C183.03180017 480.40205526 179.11301503 480.41465096 175.19419861 480.42485046 C167.54163596 480.44194985 159.88915573 480.44289765 152.23657895 480.43763756 C146.01566615 480.43358084 139.79477755 480.43505713 133.57386589 480.44038582 C132.24115225 480.44150845 132.24115225 480.44150845 130.8815151 480.44265376 C129.07616448 480.44418536 127.27081388 480.4457237 125.46546327 480.44726873 C108.58114939 480.46095968 91.69688199 480.45557833 74.81256919 480.44408352 C59.37829441 480.43413727 43.94413927 480.44712187 28.50988293 480.47101771 C12.63260977 480.49541317 -3.24460766 480.50501656 -19.12189919 480.49836498 C-28.02437549 480.49487601 -36.92675964 480.49708456 -45.82922173 480.51461601 C-53.40066236 480.52934283 -60.97194578 480.52996628 -68.54338335 480.5125451 C-72.40297171 480.50403994 -76.26227925 480.50187394 -80.12185287 480.51719666 C-84.31062392 480.53362044 -88.49871888 480.51888224 -92.68748474 480.50120544 C-93.89964564 480.51081045 -95.11180654 480.52041546 -96.36069959 480.53031152 C-104.56095515 480.45915856 -111.8154879 479.29998109 -118.40234375 474.10546875 C-118.90894531 473.47253906 -119.41554688 472.83960938 -119.9375 472.1875 C-120.72447266 471.24970703 -120.72447266 471.24970703 -121.52734375 470.29296875 C-125.08476578 464.75395885 -126.38836021 459.93273154 -126.84017944 453.38778687 C-126.92093826 452.29207568 -126.92093826 452.29207568 -127.00332856 451.17422891 C-127.17865938 448.75403788 -127.33620867 446.33303633 -127.49365234 443.91162109 C-127.61577605 442.17315634 -127.7389671 440.43476628 -127.86314964 438.69644737 C-128.19059023 434.06834384 -128.50266898 429.43932758 -128.81128597 424.80993557 C-129.11727165 420.25383529 -129.43657629 415.69867164 -129.75421143 411.14337158 C-130.48627728 400.59436183 -131.19347461 390.04374338 -131.89632845 379.49275255 C-132.17646823 375.29041116 -132.45777465 371.08814811 -132.73902357 366.88588083 C-133.40305296 356.96343095 -134.06498635 347.04084283 -134.72558594 337.11816406 C-135.40118904 326.97077981 -136.08073836 316.82366503 -136.76212752 306.67666781 C-137.35399387 297.86043741 -137.94324153 289.04403447 -138.53049409 280.22749555 C-138.87829704 275.00636509 -139.22704459 269.78530261 -139.57841873 264.56441116 C-140.98077781 243.71277286 -142.30969368 222.88985988 -143 202 C-151.58 210.58 -160.16 219.16 -169 228 C-182.30607234 221.34696383 -190.63884862 201.90325011 -195.32055664 188.2800293 C-198.35455724 178.09873873 -199.52653975 168.28607933 -199.4375 157.6875 C-199.42722778 155.79173218 -199.42722778 155.79173218 -199.41674805 153.85766602 C-199.17036055 139.45368677 -196.29737759 127.01950499 -190 114 C-189.57074219 113.10152344 -189.14148438 112.20304687 -188.69921875 111.27734375 C-176.85448433 88.08835664 -156.64142298 71.72048784 -132.48046875 62.68359375 C-106.14051926 54.2160655 -79.04979186 56.55536175 -54.1796875 68.3359375 C-44.98157893 73.07912169 -37.03643424 79.54162921 -29 86 C-30.47122616 89.40353022 -32.36942513 91.61255749 -34.99072266 94.21777344 C-35.81142242 95.03832214 -36.63212219 95.85887085 -37.47769165 96.70428467 C-38.80744522 98.01855438 -38.80744522 98.01855438 -40.1640625 99.359375 C-41.07127045 100.26375305 -41.97847839 101.1681311 -42.91317749 102.09991455 C-45.31884419 104.49796458 -47.73045736 106.88994618 -50.14337158 109.28070068 C-52.60702329 111.72385156 -55.06504064 114.17265718 -57.5234375 116.62109375 C-62.34291231 121.42021605 -67.1716194 126.20977166 -72 131 C-56.82 131 -41.64 131 -26 131 C-25.2479126 127.13821045 -24.4958252 123.2764209 -23.72094727 119.29760742 C-21.24012728 106.56073441 -18.75714043 93.82428465 -16.27302647 81.0880537 C-14.76646459 73.36351932 -13.26065142 65.63884039 -11.7565918 57.91381836 C-10.44585775 51.18174865 -9.13372808 44.44995275 -7.81991237 37.71848375 C-7.1241235 34.15327774 -6.42904064 30.58793732 -5.73562813 27.0222683 C-4.96206979 23.04461245 -4.18539662 19.06757105 -3.40844727 15.09057617 C-3.17827408 13.90446747 -2.94810089 12.71835876 -2.71095276 11.49630737 C-2.49922424 10.41517166 -2.28749573 9.33403595 -2.0693512 8.22013855 C-1.88591439 7.27898791 -1.70247759 6.33783728 -1.51348209 5.36816692 C-1 3 -1 3 0 0 Z " fill="#020101" transform="translate(199,16)"/>
<path d="M0 0 C98.01 0 196.02 0 297 0 C297 5.28 297 10.56 297 16 C289.08 16 281.16 16 273 16 C273 21.61 273 27.22 273 33 C280.92 33 288.84 33 297 33 C297.3488561 58.81535165 292.97443144 79.67584705 276 100 C275.49082031 100.65484375 274.98164063 101.3096875 274.45703125 101.984375 C260.93506823 118.6781565 238.93530184 128.90880404 218 132 C213.45708842 132.28416088 208.92555909 132.29386155 204.37475586 132.29052734 C203.03141919 132.29652541 201.68808593 132.30333385 200.34475708 132.31088257 C196.72240374 132.3284254 193.10014512 132.33323311 189.4777534 132.33451414 C187.20512032 132.33594362 184.93251071 132.34022828 182.6598835 132.34550858 C174.70398579 132.36397407 166.74815475 132.37218406 158.79223633 132.37060547 C151.42139201 132.36940682 144.05084179 132.39046356 136.68007177 132.4220928 C130.31616138 132.44841054 123.95234609 132.45896625 117.58838183 132.45769465 C113.80347959 132.4571893 110.01883878 132.46263129 106.23399162 132.48405075 C69.7701802 132.67622192 69.7701802 132.67622192 53.3125 124.375 C52.27307251 123.86622314 52.27307251 123.86622314 51.21264648 123.34716797 C27.95035164 111.56037097 12.25448532 92.19486175 3.625 67.75 C0.04381978 55.94478201 0 45.65737486 0 33 C84.48 33 168.96 33 256 33 C256 27.39 256 21.78 256 16 C171.52 16 87.04 16 0 16 C0 10.72 0 5.44 0 0 Z " fill="#DEB18A" transform="translate(198,347)"/>
<path d="M0 0 C0.92490234 -0.020625 1.84980469 -0.04125 2.80273438 -0.0625 C9.38593614 -0.09940653 14.86594736 1.09070955 21.0625 3.25 C20.51011258 9.74662927 19.64198716 16.07253445 18.34765625 22.4609375 C18.17655838 23.32607971 18.00546051 24.19122192 17.82917786 25.08258057 C17.45899673 26.95204021 17.08673587 28.82108902 16.71258545 30.6897583 C15.68821782 35.8069146 14.67956651 40.92718196 13.66796875 46.046875 C13.45541443 47.12019073 13.24286011 48.19350647 13.02386475 49.29934692 C10.83244323 60.37731025 8.69957713 71.46632593 6.5736084 82.55700684 C5.52076266 88.04873589 4.46528863 93.53995991 3.41015625 99.03125 C3.20808563 100.08310486 3.00601501 101.13495972 2.79782104 102.21868896 C2.21947308 105.22914374 1.6410217 108.23957861 1.0625 111.25 C0.80663116 112.581521 0.80663116 112.581521 0.54559326 113.93994141 C-3.02557769 132.51659518 -6.67147861 151.07336337 -10.54174805 169.59033203 C-12.46023117 178.78943983 -14.23741324 188.00826711 -15.9375 197.25 C-14.74386841 197.35066772 -14.74386841 197.35066772 -13.52612305 197.45336914 C-12.61000244 197.53063232 -11.69388184 197.60789551 -10.75 197.6875 C-9.30560547 197.80931641 -9.30560547 197.80931641 -7.83203125 197.93359375 C-5.14935988 198.22684123 -2.57769215 198.70328372 0.0625 199.25 C0.17730713 198.54955566 0.29211426 197.84911133 0.41040039 197.12744141 C2.82646772 182.49884419 5.45934271 167.9483554 8.5 153.4375 C10.80414809 142.43618637 13.01443489 131.42700426 15.0625 120.375 C15.55444622 117.72261145 16.04663685 115.07026834 16.5390625 112.41796875 C16.66234421 111.75378937 16.78562592 111.08960999 16.91264343 110.40530396 C21.55687323 85.43841427 26.60561009 60.55380892 31.73901367 35.68371582 C33.55425382 26.88061706 35.31960245 18.06768563 37.0625 9.25 C44.15249822 9.86156417 50.60159625 12.3021366 57.3125 14.5625 C71.09409105 19.10265522 84.65219862 22.56987518 99.0625 24.25 C99.72272973 29.43180301 100.03065467 34.09005477 99.0625 39.25 C95.86177459 42.64870843 92.22039332 44.24680443 88.0625 46.25 C76.24803135 54.63844934 70.3758592 68.64778853 67.0625 82.25 C61.4525 82.25 55.8425 82.25 50.0625 82.25 C50.1030963 91.49195707 50.16057992 100.73340957 50.24640274 109.97505951 C50.28562394 114.26805471 50.31793485 118.56085257 50.33349609 122.85400391 C50.34883223 127.01049119 50.38356927 131.16643496 50.43080902 135.32267761 C50.44545055 136.89474211 50.4535309 138.46688428 50.45438385 140.03901672 C50.48717017 170.21684815 62.70131546 196.46896741 83.5 218 C87.78092887 222.22046378 92.22574339 225.73403691 97.26171875 229.0078125 C97.85597656 229.41773438 98.45023438 229.82765625 99.0625 230.25 C99.0625 230.58 99.0625 230.91 99.0625 231.25 C81.4167147 231.36680162 63.77105004 231.45497245 46.12496662 231.50906086 C37.9315683 231.53484262 29.73841017 231.56999231 21.54516602 231.62719727 C14.40391718 231.67703346 7.26284228 231.70929123 0.12142438 231.72044247 C-3.66000419 231.72696099 -7.44093514 231.74227981 -11.22220421 231.77865028 C-14.78210972 231.81261381 -18.34131314 231.82305266 -21.90136528 231.81553841 C-23.82922194 231.81756772 -25.75700228 231.8444613 -27.68466187 231.87210083 C-37.1115454 231.81581687 -37.1115454 231.81581687 -40.20428467 228.83174133 C-43.19799504 224.37240748 -43.12300639 220.58129201 -43.40234375 215.2578125 C-43.44057755 214.55776093 -43.47881134 213.85770935 -43.51820374 213.13644409 C-43.64079702 210.88280842 -43.7582743 208.62894656 -43.875 206.375 C-44.4505617 195.44559739 -45.10499637 184.52396821 -45.83959961 173.60400391 C-45.92704878 172.29823772 -46.01449795 170.99247154 -46.10459709 169.64713669 C-46.38144421 165.51470475 -46.65936062 161.38234513 -46.9375 157.25 C-47.0248963 155.95113483 -47.11229259 154.65226967 -47.20233727 153.31404495 C-47.60045741 147.39997592 -47.99907818 141.4859408 -48.39814776 135.57193577 C-49.14201677 124.54770696 -49.8824222 113.52324636 -50.62212563 102.49873734 C-51.14701484 94.6772595 -51.67319673 86.8558722 -52.20214844 79.03466797 C-52.66978418 72.12002016 -53.13505917 65.20521814 -53.59754407 58.29022384 C-53.84060177 54.65729479 -54.08479353 51.02445062 -54.33186722 47.3917923 C-54.60591371 43.36201979 -54.87469836 39.33191247 -55.14306641 35.30175781 C-55.22408096 34.12249222 -55.30509552 32.94322662 -55.38856506 31.72822571 C-55.81682588 25.22348724 -56.04282189 18.76876513 -55.9375 12.25 C-47.26143964 8.7238358 -38.59160901 5.71552717 -29.5 3.4375 C-28.68499023 3.2310083 -27.86998047 3.0245166 -27.03027344 2.81176758 C-18.03436276 0.63412796 -9.23731674 0.05128281 0 0 Z " fill="#FAD56F" transform="translate(131.9375,247.75)"/>
<path d="M0 0 C3.26907962 1.36845194 3.43747422 2.15365699 4.8125 5.3125 C5.44177799 6.91499334 6.0669767 8.51909635 6.6875 10.125 C7.244375 11.23875 7.80125 12.3525 8.375 13.5 C9.6875 16.125 9.6875 16.125 10.6875 19.125 C12.52034443 20.25016085 12.52034443 20.25016085 14.6875 21.125 C15.26113281 21.46789062 15.83476562 21.81078125 16.42578125 22.1640625 C22.03790324 24.54848739 29.42151214 23.82539625 35.125 22.0625 C39.44600664 18.79539742 42.7222614 15.01525893 45.1875 10.1875 C45.6825 9.506875 46.1775 8.82625 46.6875 8.125 C49.55859375 7.69921875 49.55859375 7.69921875 52.6875 8.125 C54.62890625 10.171875 54.62890625 10.171875 56.25 12.875 C59.3961513 17.78521847 62.00337885 21.23029295 67.6875 23.125 C69.41643776 23.17527606 71.14566851 23.21585241 72.875 23.25 C78.46023477 23.69503863 81.24389288 25.51582582 85.2265625 29.3359375 C86.6875 31.125 86.6875 31.125 87.6875 34.125 C87.05585938 34.21136719 86.42421875 34.29773438 85.7734375 34.38671875 C68.33980919 37.12485346 52.97666889 44.6206224 39.6875 56.125 C39.14182373 56.56787354 38.59614746 57.01074707 38.03393555 57.46704102 C33.83454771 60.92418491 30.44070071 64.53726809 27.25 68.9375 C26.78335938 69.57913086 26.31671875 70.22076172 25.8359375 70.88183594 C18.61008184 81.161358 13.23328433 92.79804431 10.6875 105.125 C10.48511719 106.07890625 10.28273438 107.0328125 10.07421875 108.015625 C9.58842585 110.38179996 9.12548238 112.74958968 8.6875 115.125 C6.84350325 112.35900487 6.27212708 110.8696007 5.5 107.75 C1.20989926 92.89797611 -7.52390311 82.43605458 -20.3125 74.125 C-32.39035136 67.89029867 -43.99727151 66.74583274 -57.3125 66.125 C-58.29064749 61.50234742 -58.57767624 57.70999871 -57.3125 53.125 C-53.68849776 49.17547335 -48.75513278 46.82932501 -44.12451172 44.25585938 C-39.35534691 41.27946873 -36.18276914 37.3617536 -34.3125 32.125 C-33.99739334 28.76248021 -33.8122021 25.42673827 -33.71875 22.05078125 C-33.3125 19.125 -33.3125 19.125 -32.13671875 17.2578125 C-29.59823147 15.68144995 -27.5972571 15.75219702 -24.625 15.6875 C-19.07204906 15.31284307 -14.67675465 14.75875709 -10.3125 11.125 C-7.70985642 7.94511641 -5.49649947 4.60040785 -3.3125 1.125 C-2.3125 0.125 -2.3125 0.125 0 0 Z " fill="#9ED267" transform="translate(305.3125,214.875)"/>
<path d="M0 0 C22.77 0 45.54 0 69 0 C69 5.61 69 11.22 69 17 C60.75 17 52.5 17 44 17 C44 22.28 44 27.56 44 33 C52.25 33 60.5 33 69 33 C69.20717322 39.28425424 69.38606497 45.55659757 69.49438477 51.84155273 C69.53953854 53.97672733 69.60087969 56.11162524 69.67895508 58.24584961 C69.78864357 61.32214581 69.83927139 64.39475598 69.87890625 67.47265625 C69.92535782 68.42084732 69.97180939 69.36903839 70.01966858 70.34596252 C70.02277316 74.45815435 69.93688366 76.973109 67.09469604 80.08834839 C64.80126961 81.88441805 62.46377803 83.44871127 60 85 C58.49488165 86.13910174 56.99414189 87.28403824 55.5 88.4375 C50.74190654 91.4846352 47.52050556 91.77048783 42 91 C40.86691406 90.86464844 39.73382813 90.72929687 38.56640625 90.58984375 C20.62140425 88.0994893 2.65782284 82.01382014 -14 75 C-13.29228978 67.14441657 -11.88040637 59.44593983 -10.41601562 51.70410156 C-9.99588361 49.47819086 -9.5836119 47.25091463 -9.171875 45.0234375 C-8.90671686 43.60928738 -8.64110867 42.19522156 -8.375 40.78125 C-8.01535156 38.8640918 -8.01535156 38.8640918 -7.6484375 36.90820312 C-7 34 -7 34 -6 33 C-3.47905924 32.91152257 -0.98569107 32.88472699 1.53515625 32.90234375 C2.66503212 32.90446617 2.66503212 32.90446617 3.81773376 32.90663147 C6.2326956 32.91224624 8.64756601 32.92480117 11.0625 32.9375 C12.69596221 32.9425131 14.32942586 32.94707634 15.96289062 32.95117188 C19.9753243 32.96137125 23.98755936 32.98094355 28 33 C28 27.72 28 22.44 28 17 C17.77 17 7.54 17 -3 17 C-2.18622963 11.30360738 -1.12849647 5.64248233 0 0 Z " fill="#E3E6EA" transform="translate(187,165)"/>
<path d="M0 0 C5.91123073 3.32271409 10.05493072 7.75725878 13.1875 13.75 C14.67867183 22.36565945 14.76295527 30.53989201 9.75 38 C6.43383399 41.84022334 3.02441044 43.9771762 -1.73168945 45.65551758 C-6.1323324 47.57792469 -7.69606223 49.47793244 -9.50393677 53.86123657 C-9.78494232 54.63277069 -10.06594788 55.40430481 -10.35546875 56.19921875 C-10.68255829 57.01522552 -11.00964783 57.8312323 -11.34664917 58.67196655 C-12.40636111 61.33324972 -13.42144573 64.00928287 -14.4375 66.6875 C-15.16316813 68.52991403 -15.89228889 70.37097169 -16.62475586 72.21069336 C-18.11618754 75.96177698 -19.59398095 79.71781274 -21.06347656 83.47753906 C-24.02501767 91.00998984 -27.1932037 98.4525744 -30.38198853 105.89102173 C-31.58771352 108.70474913 -32.78560291 111.52178257 -33.9836731 114.33877563 C-35.07049791 116.89334985 -36.16008898 119.44674127 -37.25 122 C-41.2601905 121.37201447 -44.78192685 120.54672501 -48.5625 119.0625 C-53.42344117 117.23132353 -58.15688201 116.00192485 -63.25 115 C-62.68209586 110.09370376 -61.11140792 106.09092179 -58.9609375 101.69921875 C-58.45708527 100.64707939 -58.45708527 100.64707939 -57.9430542 99.57368469 C-57.21907585 98.06276122 -56.49204617 96.55329675 -55.76226807 95.04516602 C-54.61227336 92.66111646 -53.47758128 90.27034382 -52.34716797 87.87695312 C-48.87868702 80.54145693 -45.38120828 73.22587021 -41.74093628 65.97383118 C-40.27147122 63.03012557 -38.8362935 60.07048958 -37.40704346 57.10708618 C-36.72530939 55.71521413 -36.02787761 54.33090916 -35.31414795 52.95516968 C-31.11564244 45.17690366 -31.11564244 45.17690366 -30.96923828 36.60009766 C-32.2531961 33.4312204 -32.2531961 33.4312204 -33.87988281 30.64697266 C-36.19496212 26.17439785 -36.12884835 21.88010915 -35.25 17 C-32.44561606 8.46330703 -27.63245836 3.52834136 -20 -0.875 C-12.99700284 -2.97589915 -6.73341886 -3.03362554 0 0 Z " fill="#E2E5E9" transform="translate(481.25,134)"/>
<path d="M0 0 C0 4.82879475 -0.84680664 5.46398236 -4.125 8.8125 C-4.89070313 9.62332031 -5.65640625 10.43414062 -6.4453125 11.26953125 C-9 13 -9 13 -11.92578125 12.91796875 C-15.09430669 11.97183981 -18.0403223 10.84145694 -21.0625 9.5 C-28.72193989 6.10894811 -35.33858495 5.79056996 -43.625 5.75 C-45.16994141 5.7190625 -45.16994141 5.7190625 -46.74609375 5.6875 C-62.83816617 5.6065336 -77.3786461 11.73301718 -88.93969727 22.81494141 C-101.37298445 35.21237348 -109.18345979 50.54467734 -109.375 68.3125 C-109.26676295 79.54675982 -107.17129077 89.71060538 -101.890625 99.6953125 C-101 102 -101 102 -101.04296875 103.9765625 C-102.47716044 107.0088535 -104.65644433 108.93531354 -107.0625 111.25 C-107.98160156 112.14203125 -108.90070313 113.0340625 -109.84765625 113.953125 C-110.55792969 114.62859375 -111.26820312 115.3040625 -112 116 C-120.64479861 108.38129025 -124.81661105 93.09288893 -126 82 C-127.46859457 56.48402842 -123.37482459 35.11251881 -106.2722168 15.50219727 C-94.75005002 2.84967264 -80.63252819 -5.95884865 -64 -10 C-62.73542969 -10.33644531 -62.73542969 -10.33644531 -61.4453125 -10.6796875 C-39.94180088 -15.56989419 -18.85120426 -10.67107321 0 0 Z " fill="#FAC328" transform="translate(143,103)"/>
<path d="M0 0 C1.3786383 1.14145322 2.75407025 2.28679993 4.125 3.4375 C5.115 4.159375 6.105 4.88125 7.125 5.625 C17.69179586 14.64043802 26.77029581 30.7802157 29.125 44.4375 C29.125 46.7475 29.125 49.0575 29.125 51.4375 C23.515 51.4375 17.905 51.4375 12.125 51.4375 C11.75375 49.705 11.3825 47.9725 11 46.1875 C7.26610757 31.59448922 -0.69969819 20.05512583 -13.125 11.5 C-27.34628318 3.32776967 -42.96570555 0.68413919 -59.09375 4.25390625 C-73.18998328 8.43326467 -85.82443184 17.29793748 -93.06640625 30.24609375 C-96.72590479 37.11928413 -99.76435787 43.66300508 -100.875 51.4375 C-106.485 51.4375 -112.095 51.4375 -117.875 51.4375 C-117.02888863 32.54101274 -106.56848976 16.44173414 -93.3125 3.56640625 C-67.00859667 -19.40735547 -27.79994399 -21.25335685 0 0 Z " fill="#FBE6A4" transform="translate(448.875,278.5625)"/>
<path d="M0 0 C29.7 0 59.4 0 90 0 C87.75 13.5 87.75 13.5 86.7109375 18.640625 C86.49179688 19.72988281 86.27265625 20.81914062 86.046875 21.94140625 C85.82515625 23.03324219 85.6034375 24.12507813 85.375 25.25 C85.14554687 26.38824219 84.91609375 27.52648437 84.6796875 28.69921875 C84.12157793 31.46651204 83.56165956 34.23342546 83 37 C82.06542969 36.7834375 81.13085938 36.566875 80.16796875 36.34375 C55.16222123 30.89746524 28.72751386 34.58118405 5.0859375 44.18359375 C3 45 3 45 0 45 C0 30.15 0 15.3 0 0 Z " fill="#E3E5E9" transform="translate(74,198)"/>
<path d="M0 0 C-1.64491538 4.20520807 -4.74584554 7.02696585 -7.88671875 10.14550781 C-8.78942001 11.05346603 -8.78942001 11.05346603 -9.71035767 11.97976685 C-11.6977413 13.97594212 -13.6923383 15.96472603 -15.6875 17.953125 C-17.07019865 19.33717068 -18.45260027 20.72151315 -19.8347168 22.10614014 C-22.72999322 25.00436405 -25.62885415 27.89894175 -28.53027344 30.79101562 C-32.25643009 34.50575673 -35.97350887 38.22943177 -39.68797302 41.95586014 C-42.53928578 44.81438339 -45.39532445 47.66814633 -48.25283813 50.52046967 C-49.62589524 51.89218914 -50.99745867 53.26540538 -52.36752319 54.64011383 C-54.27799096 56.55563579 -56.19470877 58.46467081 -58.11328125 60.37207031 C-58.6826944 60.94553192 -59.25210754 61.51899353 -59.83877563 62.10983276 C-63.77146915 66 -63.77146915 66 -66 66 C-71.38280035 55.5227636 -71.59044942 43.06517841 -69.33984375 31.65234375 C-68.43342307 28.92523393 -67.36325172 26.52828583 -66 24 C-65.51402344 23.08089844 -65.02804688 22.16179687 -64.52734375 21.21484375 C-57.39871684 8.96304288 -46.69618115 0.87393442 -33.1875 -3.375 C-21.50958974 -5.69607533 -11.0139809 -3.80143563 0 0 Z " fill="#F7D36E" transform="translate(120,128)"/>
<path d="M0 0 C2.64 0 5.28 0 8 0 C8.66022973 5.18180301 8.96815467 9.84005477 8 15 C4.79927459 18.39870843 1.15789332 19.99680443 -3 22 C-14.81446865 30.38844934 -20.6866408 44.39778853 -24 58 C-29.61 58 -35.22 58 -41 58 C-40.9594037 67.24195707 -40.90192008 76.48340957 -40.81609726 85.72505951 C-40.77687606 90.01805471 -40.74456515 94.31085257 -40.72900391 98.60400391 C-40.71366777 102.76049119 -40.67893073 106.91643496 -40.63169098 111.07267761 C-40.61704945 112.64474211 -40.6089691 114.21688428 -40.60811615 115.78901672 C-40.57532983 145.96684815 -28.36118454 172.21896741 -7.5625 193.75 C-3.28157113 197.97046378 1.16324339 201.48403691 6.19921875 204.7578125 C6.79347656 205.16773438 7.38773438 205.57765625 8 206 C8 206.33 8 206.66 8 207 C2.69519471 207.85894898 -2.9343058 208.70974616 -7.79394531 205.99951172 C-12.01978249 202.83193975 -15.52698908 198.95537354 -19 195 C-19.8353125 194.07960938 -20.670625 193.15921875 -21.53125 192.2109375 C-42.19866664 168.21691613 -50.60554267 138.85239034 -50.29296875 107.71484375 C-50.28735308 106.03520594 -50.28309235 104.35556312 -50.28010559 102.67591858 C-50.26881155 98.31779705 -50.23948346 93.95998965 -50.20599365 89.60198975 C-50.17495373 85.12988531 -50.16152882 80.65772865 -50.14648438 76.18554688 C-50.11459388 67.4568731 -50.06195842 58.72851216 -50 50 C-43.73 50 -37.46 50 -31 50 C-30.649375 48.5975 -30.29875 47.195 -29.9375 45.75 C-25.42147082 30.87861089 -14.74327971 18.62399648 -2 10 C-1.34 10 -0.68 10 0 10 C0 6.7 0 3.4 0 0 Z " fill="#FAC32A" transform="translate(223,272)"/>
<path d="M0 0 C8.05852378 5.86945111 14.28133301 13.8927985 17.36328125 23.42578125 C17.36328125 24.41578125 17.36328125 25.40578125 17.36328125 26.42578125 C-9.03671875 26.42578125 -35.43671875 26.42578125 -62.63671875 26.42578125 C-61.06704427 15.4380599 -55.92150139 7.47157583 -47.07421875 0.80078125 C-32.13426399 -9.16655543 -15.41531424 -9.20351354 0 0 Z " fill="#F8D46E" transform="translate(427.63671875,303.57421875)"/>
<path d="M0 0 C0.65613281 0.53238281 1.31226563 1.06476563 1.98828125 1.61328125 C2.92607422 2.36544922 2.92607422 2.36544922 3.8828125 3.1328125 C9.21263885 7.90527139 12.43413849 13.97999473 14.98828125 20.61328125 C14.98828125 21.93328125 14.98828125 23.25328125 14.98828125 24.61328125 C-11.41171875 24.61328125 -37.81171875 24.61328125 -65.01171875 24.61328125 C-63.49862438 14.02162069 -58.35157718 6.31392612 -50.01171875 -0.38671875 C-34.24503439 -10.88229266 -15.66221884 -11.53907531 0 0 Z " fill="#F66B4F" transform="translate(281.01171875,305.38671875)"/>
<path d="M0 0 C1.15224028 0.92961422 2.29659176 1.8690125 3.4375 2.8125 C4.39462891 3.59560547 4.39462891 3.59560547 5.37109375 4.39453125 C7 6 7 6 8 9 C7.36835938 9.08636719 6.73671875 9.17273438 6.0859375 9.26171875 C-11.34769081 11.99985346 -26.71083111 19.4956224 -40 31 C-40.54567627 31.44287354 -41.09135254 31.88574707 -41.65356445 32.34204102 C-45.85295229 35.79918491 -49.24679929 39.41226809 -52.4375 43.8125 C-52.90414062 44.45413086 -53.37078125 45.09576172 -53.8515625 45.75683594 C-61.07741816 56.036358 -66.45421567 67.67304431 -69 80 C-69.20238281 80.95390625 -69.40476562 81.9078125 -69.61328125 82.890625 C-70.09907415 85.25679996 -70.56201762 87.62458968 -71 90 C-72.84399675 87.23400487 -73.41537292 85.7446007 -74.1875 82.625 C-78.47760074 67.77297611 -87.21140311 57.31105458 -100 49 C-112.07785136 42.76529867 -123.68477151 41.62083274 -137 41 C-137 38.36 -137 35.72 -137 33 C-117.61530679 32.11440488 -100.94811555 35.08608824 -85.8125 48.3125 C-81.24142901 52.61296358 -77.05261144 57.21157922 -73 62 C-72.53851563 60.99582031 -72.07703125 59.99164063 -71.6015625 58.95703125 C-59.62165514 33.56412363 -40.1783664 15.41155486 -14 5 C-9.33724962 3.41381323 -4.94488198 2 0 2 C0 1.34 0 0.68 0 0 Z " fill="#89BD50" transform="translate(385,240)"/>
<path d="M0 0 C1.39813126 0.01869403 2.79632886 0.03290843 4.19454956 0.0428772 C7.84267908 0.08073226 11.48671009 0.17864145 15.13323975 0.28991699 C18.86690835 0.39294711 22.6012516 0.43803944 26.3359375 0.48828125 C33.63987259 0.59494541 40.94045199 0.76518058 48.2421875 0.9765625 C47.93486763 3.62309381 47.62159428 6.2686775 47.3046875 8.9140625 C47.21767578 9.66880859 47.13066406 10.42355469 47.04101562 11.20117188 C46.35546875 16.86328125 46.35546875 16.86328125 45.2421875 17.9765625 C42.86917881 18.07150983 40.52540047 18.10215569 38.15209961 18.09008789 C37.41068222 18.09023392 36.66926483 18.09037994 35.90538025 18.0905304 C33.44340129 18.08983115 30.98149707 18.08203824 28.51953125 18.07421875 C26.81702211 18.07235461 25.11451243 18.07093069 23.41200256 18.06993103 C18.92225677 18.06610552 14.43254312 18.05627497 9.94281006 18.04522705 C5.36487259 18.03501363 0.78692994 18.03043356 -3.79101562 18.02539062 C-12.77996207 18.01465272 -21.76888462 17.99757591 -30.7578125 17.9765625 C-29.4265427 16.36502537 -28.08349238 14.76248287 -26.70016479 13.19540405 C-25.308702 11.60586981 -23.96391232 9.97500476 -22.65164185 8.31948853 C-15.77584163 0.35091459 -10.16525004 -0.40366675 0 0 Z " fill="#DEE1E5" transform="translate(121.7578125,164.0234375)"/>
<path d="M0 0 C5.94 0 11.88 0 18 0 C18 5.28 18 10.56 18 16 C27.57 15.67 37.14 15.34 47 15 C49 20 49 20 49 24 C22.6 24 -3.8 24 -31 24 C-30 17 -30 17 -28 15 C-25.20263672 14.86474609 -25.20263672 14.86474609 -21.6796875 15.0234375 C-20.42285156 15.075 -19.16601562 15.1265625 -17.87109375 15.1796875 C-16.53905165 15.24456926 -15.2070205 15.30967634 -13.875 15.375 C-12.53519706 15.43323823 -11.19535313 15.49054156 -9.85546875 15.546875 C-6.56990162 15.68869804 -3.28488516 15.84317322 0 16 C0 10.72 0 5.44 0 0 Z " fill="#E5563E" transform="translate(247,306)"/>
<path d="M0 0 C0.33 0.66 0.66 1.32 1 2 C25.75 2 50.5 2 76 2 C78 7 78 7 78 10 C51.6 10 25.2 10 -2 10 C-1 3 -1 3 0 0 Z " fill="#FDC529" transform="translate(367,320)"/>
<path d="M0 0 C0.33 0 0.66 0 1 0 C1.26260827 4.35301263 1.42161414 8.70398357 1.5625 13.0625 C1.63791016 14.29162109 1.71332031 15.52074219 1.79101562 16.78710938 C2.00875396 25.76276757 2.00875396 25.76276757 -0.88525391 29.31225586 C-3.17856591 31.0975976 -5.48471972 32.54991508 -8 34 C-9.51057326 35.13185797 -11.01214593 36.27593886 -12.5 37.4375 C-17.13859419 40.52171518 -20.53038051 40.52091614 -26 40 C-26 37 -26 37 -24.1875 34.8125 C-19.46502935 30.34935577 -13.81556724 25.90778362 -8 23 C-7.62853179 20.99230277 -7.3532883 18.96647049 -7.125 16.9375 C-6.21224847 10.34540559 -4.84630007 4.84630007 0 0 Z " fill="#C9CED6" transform="translate(255,216)"/>
<path d="M0 0 C5.28 0 10.56 0 16 0 C16 5.28 16 10.56 16 16 C10.72 16 5.44 16 0 16 C0 10.72 0 5.44 0 0 Z " fill="#000000" transform="translate(248,306)"/>
<path d="M0 0 C5.28 0 10.56 0 16 0 C16 5.28 16 10.56 16 16 C10.72 16 5.44 16 0 16 C0 10.72 0 5.44 0 0 Z " fill="#000000" transform="translate(463,149)"/>
<path d="M0 0 C9.47437706 1.18209174 18.05901231 3.79981042 27 7 C26.01 9.64 25.02 12.28 24 15 C19.96574357 14.56386417 16.45908475 13.48743862 12.6875 12.0625 C7.82655883 10.23132353 3.09311799 9.00192485 -2 8 C-1.125 2.25 -1.125 2.25 0 0 Z " fill="#C7CCD4" transform="translate(420,241)"/>
<path d="M0 0 C2.81256281 -0.02684312 5.62487241 -0.04676188 8.4375 -0.0625 C9.23994141 -0.07087891 10.04238281 -0.07925781 10.86914062 -0.08789062 C12.91295221 -0.0965143 14.95683902 -0.0522815 17 0 C18 1 18 1 18 8 C12.39 8 6.78 8 1 8 C0.67 5.36 0.34 2.72 0 0 Z " fill="#F5D16D" transform="translate(460,322)"/>
<path d="M0 0 C0.33 0.66 0.66 1.32 1 2 C6.28 2 11.56 2 17 2 C16.67 4.64 16.34 7.28 16 10 C10.39 10 4.78 10 -1 10 C-0.67 6.7 -0.34 3.4 0 0 Z " fill="#F5D26E" transform="translate(332,320)"/>
</svg>
